<svg xmlns="http://www.w3.org/2000/svg" viewBox="0 0 34.01 46.49"><defs><style>.cls-1{fill:#ff6c0c;}</style></defs><title>WebIkeAsset 9</title><g id="Layer_2" data-name="Layer 2"><g id="Layer_1-2" data-name="Layer 1"><g id="dUtVUz"><path class="cls-1" d="M31.83,43a.94.94,0,0,1-.84-.51c-.14-.25-.36-.87.49-1.36A1.09,1.09,0,0,0,32.05,40q0-9.91,0-19.82V8.79H2V9c0,.4,0,.78,0,1.17,0,.69-.39,1.14-1,1.14a1,1,0,0,1-1-1.15Q0,6.65,0,3.12A2.92,2.92,0,0,1,3.11,0H19.62L30.92,0A2.83,2.83,0,0,1,33.8,1.9,4,4,0,0,1,34,3.25Q34,17.64,34,32v6.13c0,.71,0,1.43,0,2.14a2.82,2.82,0,0,1-1.53,2.49A1.31,1.31,0,0,1,31.83,43ZM3.08,1.94A1,1,0,0,0,2,3.08c0,.42,0,.83,0,1.25,0,.73,0,1.46,0,2.19,0,.21,0,.25,0,.25s0,0,.28,0H32c0-.05,0-.1,0-.16V6.09c0-1,0-2,0-3,0-.8-.36-1.15-1.16-1.15H3.08Z"/><path class="cls-1" d="M32.35,8.49H1.65c0,.59,0,1.15,0,1.7S1.39,11,1,11s-.67-.33-.67-.86q0-3.53,0-7.07A2.62,2.62,0,0,1,3.11.3H19.45L30.92.3A2.53,2.53,0,0,1,33.52,2a3.79,3.79,0,0,1,.18,1.25q0,17,0,34c0,1,0,2,0,3a2.52,2.52,0,0,1-1.38,2.24.72.72,0,0,1-1.06-.21c-.2-.36-.08-.69.38-1A1.38,1.38,0,0,0,32.35,40q0-11.55,0-23.1,0-3.82,0-7.63C32.35,9.06,32.35,8.8,32.35,8.49Zm0-1.43c0-.17,0-.3,0-.44,0-1.18,0-2.36,0-3.53a1.3,1.3,0,0,0-1.46-1.45H3.08A1.3,1.3,0,0,0,1.66,3.08c0,1.14,0,2.29,0,3.43,0,.48.14.59.6.59H31.8Z"/><path class="cls-1" d="M3.13,43.13A2.92,2.92,0,0,1,0,40V26.43H0v-13A2.17,2.17,0,0,1,0,13a.94.94,0,0,1,1-.86.92.92,0,0,1,1,.89c0,.24,0,.47,0,.71V40c0,.84.35,1.18,1.17,1.18H20.07a1,1,0,0,1,1.1,1,1,1,0,0,1-1.08,1h-17Z"/><path class="cls-1" d="M.3,26.72q0-6.61,0-13.21a3.12,3.12,0,0,1,0-.51.65.65,0,0,1,.7-.61.62.62,0,0,1,.63.61c0,.29,0,.58,0,.87q0,12.93,0,25.86c0,.09,0,.17,0,.26,0,1,.47,1.48,1.47,1.48H20.07c.5,0,.8.27.81.67s-.3.66-.79.68H3.14A2.63,2.63,0,0,1,.3,40q0-6.63,0-13.26Z"/><path class="cls-1" d="M7.89,29.39A1.77,1.77,0,0,1,6,27.6c0-.51,0-1.05,0-1.66a1.79,1.79,0,0,1,2-1.89H26a1.81,1.81,0,0,1,2,2v.13c0,.46,0,.92,0,1.38a1.76,1.76,0,0,1-1.9,1.83H7.89Zm.06-2a.58.58,0,0,0,.23,0H24.94c1.1,0,1.1,0,1.13-1,0-.32,0-.37,0-.37s-.06,0-.31,0H8.36C8,26,8,26,8,26s-.05.41,0,.63a3.86,3.86,0,0,1,0,.57.38.38,0,0,0,0,.19Z"/><path class="cls-1" d="M17.06,24.35H26a1.53,1.53,0,0,1,1.75,1.71c0,.49,0,1,0,1.48a1.47,1.47,0,0,1-1.6,1.54H7.89A1.47,1.47,0,0,1,6.3,27.58c0-.54,0-1.09,0-1.64a1.5,1.5,0,0,1,1.66-1.6h9.11ZM17,27.75h8c1.42,0,1.39,0,1.43-1.4,0-.53-.14-.65-.66-.65-5.53,0-11.06,0-16.6,0-.47,0-1.12-.12-1.36.13s-.07.9-.11,1.38.13.54.55.54C11.11,27.74,14,27.74,17,27.75Z"/><path class="cls-1" d="M8.09,21.79A1.84,1.84,0,0,1,6,19.73c0-.41,0-.82,0-1.23A1.85,1.85,0,0,1,8,16.44H25.91A1.84,1.84,0,0,1,28,18.56v.32c0,.34,0,.68,0,1a1.8,1.8,0,0,1-2,1.89h-18ZM9,18.4a2.61,2.61,0,0,0-1,.08,2.54,2.54,0,0,0-.08,1,2.37,2.37,0,0,0,0,.42,1.11,1.11,0,0,1,.38,0H24.89c1.17,0,1.17,0,1.18-1.16,0-.22,0-.26,0-.26h0a.56.56,0,0,0-.22,0H9Z"/><path class="cls-1" d="M16.95,21.49H8.09c-1.24,0-1.79-.54-1.8-1.77,0-.41,0-.82,0-1.23A1.55,1.55,0,0,1,8,16.74H25.91c1.26,0,1.8.55,1.8,1.81,0,.44,0,.89,0,1.33a1.51,1.51,0,0,1-1.66,1.6H16.95Zm.11-3.39H9c-1.37,0-1.37,0-1.37,1.34,0,.69,0,.69.7.69H24.89c1.49,0,1.47,0,1.48-1.51,0-.44-.14-.54-.56-.54C22.89,18.1,20,18.1,17.05,18.1Z"/><path class="cls-1" d="M28,46.49a1.52,1.52,0,0,1-1.32-.86c-.28-.46-.54-.93-.82-1.41l-.26-.46-.21.12-1.05.61a2,2,0,0,1-1,.28A1.43,1.43,0,0,1,22,43.16q0-3.89,0-7.78a1.42,1.42,0,0,1,1.38-1.56,1.74,1.74,0,0,1,.86.24Q27.62,36,31,38a1.51,1.51,0,0,1,.82,1.27A1.57,1.57,0,0,1,31,40.59l-1.06.63-.27.16.25.43c.3.51.58,1,.85,1.51a1.47,1.47,0,0,1-.58,2.14c-.44.27-.89.53-1.34.77A1.91,1.91,0,0,1,28,46.49Zm-2.2-4.83a1.56,1.56,0,0,1,1.36.89l1.07,1.82L28.9,44l-.24-.42c-.29-.5-.57-1-.83-1.47a1.53,1.53,0,0,1,.65-2.26l.9-.52L24,36.16v6.26h0l.89-.5A1.9,1.9,0,0,1,25.75,41.66Z"/><path class="cls-1" d="M29.27,41.27c.44.77.85,1.47,1.24,2.19A1.18,1.18,0,0,1,30,45.2c-.44.27-.88.52-1.33.77a1.21,1.21,0,0,1-1.82-.5c-.41-.69-.8-1.38-1.23-2.13l-1.52.87c-1,.57-1.89.09-1.9-1.06q0-3.89,0-7.78A1.13,1.13,0,0,1,24,34.32q3.43,1.94,6.82,3.93a1.14,1.14,0,0,1,0,2.09C30.35,40.65,29.83,40.94,29.27,41.27Zm-5.62-5.62v7.29c.49-.28.91-.53,1.34-.76a1.25,1.25,0,0,1,1.86.53l1.22,2.07,1.23-.71c-.43-.75-.84-1.43-1.22-2.13a1.24,1.24,0,0,1,.53-1.86L30,39.29Z"/><path class="cls-1" d="M17.05,37.47c-.57,0-1.15,0-1.72,0a2.65,2.65,0,0,1,.05-5.3h3.24a2.65,2.65,0,0,1,.05,5.3Zm.89-2h.58a.7.7,0,1,0,0-1.39h-3a.66.66,0,0,0-.72.69.65.65,0,0,0,.69.7h2.46Z"/><path class="cls-1" d="M17,32.45c.53,0,1.06,0,1.58,0a2.35,2.35,0,0,1,.05,4.7c-1.11,0-2.22,0-3.32,0a2.35,2.35,0,0,1,0-4.7c.54,0,1.09,0,1.64,0Zm0,3.34c.51,0,1,0,1.53,0a1,1,0,1,0,0-2q-1.5,0-3,0a1,1,0,0,0-1,1,.94.94,0,0,0,1,1C16,35.8,16.49,35.79,17,35.79Z"/><path class="cls-1" d="M10.75,12.68a1,1,0,1,1,0-1.93H23.14c.88,0,1.2.5,1.2,1a.89.89,0,0,1-.25.65,1.31,1.31,0,0,1-.95.32H10.75Z"/><path class="cls-1" d="M17,11h6.14c.58,0,.9.24.91.67s-.32.67-.9.67H10.76c-.5,0-.8-.27-.8-.67s.31-.67.8-.67H17Z"/><path class="cls-1" d="M8.59,4.41a2,2,0,0,1,2-2.08,2.06,2.06,0,1,1,.05,4.11A2,2,0,0,1,8.59,4.41Zm2-.73a.7.7,0,0,0-.69.72.69.69,0,0,0,.69.67.73.73,0,0,0,.71-.67A.73.73,0,0,0,10.63,3.68Z"/><path class="cls-1" d="M7.3,4.4a2.05,2.05,0,0,1-2.06,2A2.09,2.09,0,0,1,3.18,4.38a2.08,2.08,0,0,1,2.1-2.06A2.05,2.05,0,0,1,7.3,4.4Zm-2,.68a.69.69,0,0,0,.67-.7.68.68,0,0,0-.72-.7.7.7,0,1,0,0,1.4Z"/><path class="cls-1" d="M16,2.32a2.06,2.06,0,0,1,0,4.11,2.09,2.09,0,0,1-2.09-2.08A2.07,2.07,0,0,1,16,2.32Zm0,1.35a.7.7,0,1,0,0,1.4.7.7,0,0,0,0-1.4Z"/></g></g></g></svg>