<svg xmlns="http://www.w3.org/2000/svg" viewBox="0 0 195.93 208.74"><defs><style>.cls-1{fill:#e7e6e6;}.cls-2{font-size:17.33px;font-family:Avenir-Black, Avenir;letter-spacing:0em;}.cls-2,.cls-3{fill:#111820;}.cls-3{font-size:11.56px;font-family:Avenir-Light, Avenir;letter-spacing:-0.02em;}.cls-4{fill:none;stroke:#ff6c0c;stroke-miterlimit:10;stroke-width:1.93px;}.cls-5{fill:#ff6c0c;}</style></defs><title>WebIkeAsset 12</title><g id="Layer_2" data-name="Layer 2"><g id="Layer_1-2" data-name="Layer 1"><rect class="cls-1" width="195.93" height="208.74"/><text class="cls-2" transform="translate(24.47 92.74)">MI COBERTURA</text><text class="cls-3" transform="translate(25.01 151.22)">Conocé el alcance de tu<tspan x="0" y="18.3">cobertura</tspan></text><line class="cls-4" x1="24.09" y1="129.79" x2="73.27" y2="129.79"/><g id="oTDJ1t"><path class="cls-5" d="M34,46.34c.35-.13.71-.3,1.09-.4a3.76,3.76,0,0,1,3.62,1,15.75,15.75,0,0,0,4.41,2.73,6.83,6.83,0,0,1,4.16,5,18.38,18.38,0,0,1,.3,3.23c0,.35.08.54.48.62a1.41,1.41,0,0,1,1.12,1.2,3.65,3.65,0,0,1,.07.7c0,1.92,0,3.85,0,5.77a1.79,1.79,0,0,1-2,2c-2.81,0-5.62,0-8.43,0a1.62,1.62,0,0,1-1.77-1.74q0-3.13,0-6.26a1.5,1.5,0,0,1,.15-.78c.27-.41.1-.63-.19-.91-1.39-1.35-2.74-2.75-4.15-4.09a11.47,11.47,0,0,1-2.59-3.78c-.9-2.05-1.88-4.07-2.79-6.12A2.56,2.56,0,0,1,28.79,41a2.59,2.59,0,0,1,3.45,1.45c.57,1.27,1.12,2.55,1.68,3.82Zm.75,1.6c.38.42.72.85,1.1,1.23,1.19,1.2,2.4,2.37,3.58,3.57a.83.83,0,0,1,0,1.21.81.81,0,0,1-1.17-.08c-1.35-1.32-2.7-2.64-4-4a13.61,13.61,0,0,1-2.47-4.37c-.35-.83-.71-1.66-1.09-2.48a1,1,0,0,0-1.3-.53,1,1,0,0,0-.44,1.3c0,.1.08.2.13.3,1,2.14,1.94,4.28,3,6.4a8.08,8.08,0,0,0,1.35,2.08c1.83,1.91,3.74,3.75,5.63,5.6a1.05,1.05,0,0,0,.66.28c1.94,0,3.88,0,5.82,0,.35,0,.5-.13.48-.48a19.76,19.76,0,0,0-.24-2.8A5.12,5.12,0,0,0,43,51.36a22.52,22.52,0,0,1-5.66-3.48A2,2,0,0,0,34.74,47.94Zm4,18.64,8.53,0c.38,0,.38-.24.38-.51,0-1.83,0-3.66,0-5.49,0-.46-.19-.54-.59-.53q-3.89,0-7.78,0c-.44,0-.56.14-.55.56,0,1.65,0,3.3,0,5Z"/><path class="cls-5" d="M69.32,46.13l1.11-2.57c.21-.5.41-1,.64-1.49a2.58,2.58,0,0,1,4.68,2.16c-1,2.37-2.06,4.75-3.2,7.07A11.73,11.73,0,0,1,70.66,54c-1.42,1.55-2.94,3-4.43,4.5-.22.22-.38.39-.13.73a1.53,1.53,0,0,1,.18.83c0,2.09,0,4.17,0,6.26a1.59,1.59,0,0,1-1.76,1.79c-2.18,0-4.35,0-6.53,0-.73,0-1.45,0-2.18,0a1.56,1.56,0,0,1-1.65-1.67q0-3.21,0-6.42a1.46,1.46,0,0,1,1.14-1.57c.38-.1.43-.29.42-.61a9.89,9.89,0,0,1,.63-4.32,6.92,6.92,0,0,1,3.88-4A14,14,0,0,0,64.31,47a4.1,4.1,0,0,1,3.12-1.29A13.29,13.29,0,0,1,69.32,46.13ZM57.41,58.33c2.21,0,4.36,0,6.52,0a.94.94,0,0,0,.52-.32c1.67-1.67,3.35-3.32,5-5a9.43,9.43,0,0,0,1.63-2.28c1.12-2.31,2.14-4.67,3.19-7a1,1,0,0,0-.45-1.34,1,1,0,0,0-1.3.55c-.3.66-.55,1.34-.86,2a21.48,21.48,0,0,1-2,4A61.66,61.66,0,0,1,65,53.79a.76.76,0,0,1-1.16,0,.82.82,0,0,1,.08-1.17c.61-.63,1.23-1.23,1.83-1.86.84-.88,1.66-1.77,2.49-2.65.33-.35.16-.54-.2-.67a2.15,2.15,0,0,0-2.28.45,21.34,21.34,0,0,1-5.35,3.38,5.12,5.12,0,0,0-1.72,1.44A7.6,7.6,0,0,0,57.41,58.33Zm2.82,8.14c1.34,0,2.68,0,4,0,.39,0,.5-.13.5-.5,0-1.85,0-3.7,0-5.54,0-.34-.1-.48-.47-.48q-4,0-8,0c-.36,0-.47.14-.47.48q0,2.77,0,5.54c0,.37.12.51.5.5C57.58,66.47,58.9,66.47,60.22,66.47Z"/><path class="cls-5" d="M38.54,32.5c0-2.18,0-4.35,0-6.53a1.24,1.24,0,0,1,.85-1.33c3.88-1.69,7.74-3.43,11.62-5.12a1.43,1.43,0,0,1,1,0c3.93,1.66,7.84,3.37,11.77,5a1.16,1.16,0,0,1,.78,1.17c0,4.14.08,8.27,0,12.41a9,9,0,0,1-4,7.56c-2.63,1.87-5.21,3.8-7.82,5.7a1.59,1.59,0,0,1-2.14.1q-4.19-3-8.36-6A8.76,8.76,0,0,1,38.57,38C38.57,36.16,38.55,34.33,38.54,32.5Zm1.64.34h0c0,2.07-.06,4.14.05,6.2a6.33,6.33,0,0,0,2.59,4.89c2.76,2.06,5.58,4,8.37,6a.58.58,0,0,0,.81,0c1.91-1.41,3.83-2.8,5.74-4.21a32.08,32.08,0,0,0,3-2.28A7.15,7.15,0,0,0,63,38c0-3.84,0-7.69,0-11.53a.66.66,0,0,0-.46-.69Q57.22,23.57,52,21.3a1.16,1.16,0,0,0-1,0q-5.18,2.31-10.37,4.59a.68.68,0,0,0-.47.74C40.17,28.7,40.17,30.77,40.18,32.84Z"/><path class="cls-5" d="M44.82,62.48a2.47,2.47,0,0,1,.64.08.94.94,0,0,1,.43.37.73.73,0,0,1-.18,1,1.9,1.9,0,0,1-1.85,0,.67.67,0,0,1-.16-1,3.91,3.91,0,0,1,1-.59Z"/><path class="cls-5" d="M58.62,62.43h.32c.53,0,.88.32.87.77A.79.79,0,0,1,59,64a3.84,3.84,0,0,1-1,0,.73.73,0,0,1-.68-.83.75.75,0,0,1,.78-.74h.43Z"/><path class="cls-5" d="M61.26,33c0,1.9.07,3.81,0,5.71A5.2,5.2,0,0,1,59,42.85c-2.18,1.62-4.39,3.2-6.59,4.8-.69.5-.86.49-1.55,0-2.16-1.53-4.3-3.08-6.47-4.59a5.75,5.75,0,0,1-2.57-4.89c0-3.39,0-6.78-.06-10.17a1.15,1.15,0,0,1,.78-1.17q4.2-1.85,8.38-3.73a1.37,1.37,0,0,1,1.2,0c2.75,1.2,5.5,2.41,8.27,3.58a1.37,1.37,0,0,1,.94,1.45c0,1.63,0,3.26,0,4.9Zm-1.57.49c0-1.63,0-3.27,0-4.9a.57.57,0,0,0-.39-.62c-2.44-1-4.88-2.13-7.33-3.16a1.2,1.2,0,0,0-.86,0C48.65,25.88,46.23,27,43.8,28a.57.57,0,0,0-.4.62c0,3.17,0,6.35.05,9.52a3.84,3.84,0,0,0,1.48,3.24c2.07,1.53,4.19,3,6.27,4.51a.6.6,0,0,0,.85,0c1.94-1.44,3.88-2.86,5.84-4.27A4.18,4.18,0,0,0,59.71,38Q59.7,35.76,59.69,33.5Z"/><path class="cls-5" d="M49.79,38.48l4.58-6.93c.43-.65.85-1.3,1.29-1.95s.77-.63,1.19-.37A.83.83,0,0,1,57,30.47Q53.87,35.25,50.7,40a.85.85,0,0,1-1.38.22l-3-2.21c-.5-.38-.61-.85-.31-1.25s.78-.42,1.29,0l2.32,1.71Z"/></g></g></g></svg>