<svg xmlns="http://www.w3.org/2000/svg" viewBox="0 0 195.93 208.74"><defs><style>.cls-1{fill:#e7e6e6;}.cls-2{fill:#ff6c0c;}.cls-3{font-size:17.33px;font-family:Avenir-Black, Avenir;letter-spacing:0em;}.cls-3,.cls-4{fill:#111820;}.cls-4{font-size:11.56px;font-family:Avenir-Light, Avenir;}.cls-5{letter-spacing:0em;}.cls-6{font-size:11.46px;fill:#010101;font-family:Avenir-Heavy, Avenir;}.cls-7{fill:none;stroke:#ff6c0c;stroke-miterlimit:10;stroke-width:1.93px;}</style></defs><title>WebIkeAsset 8</title><g id="Layer_2" data-name="Layer 2"><g id="Layer_1-2" data-name="Layer 1"><rect class="cls-1" width="195.93" height="208.74"/><g id="_6dnN6b" data-name="6dnN6b"><path class="cls-2" d="M43.44,60.15l-17.63,0c-1.09,0-1.33-.24-1.33-1.32q0-11.54,0-23.08a1.54,1.54,0,0,1,.69-1.38c1.63-1.19,3.24-2.42,4.86-3.62a.74.74,0,0,0,.33-.69c0-1.63,0-3.26,0-4.88,0-.78.31-1.09,1.09-1.09,1.92,0,3.84,0,5.76,0a1.46,1.46,0,0,0,.83-.29c1.55-1.22,3.07-2.47,4.61-3.7.65-.52,1-.52,1.63,0,1.53,1.24,3.05,2.49,4.6,3.72a1.46,1.46,0,0,0,.83.29c1.83,0,3.67,0,5.5,0,1,0,1.26.29,1.26,1.26,0,1.56,0,3.12,0,4.68a1,1,0,0,0,.33.67q2.46,1.9,5,3.75a1.41,1.41,0,0,1,.62,1.26q0,11.72,0,23.44c0,.72-.32,1-1.09,1H53.1ZM32.24,25.88a3.16,3.16,0,0,0,0,.38q0,6.53,0,13.05a.81.81,0,0,0,.28.55c2.77,2.27,5.54,4.53,8.34,6.76a4.63,4.63,0,0,0,1.63.83,4.26,4.26,0,0,0,4-1c2.6-2.15,5.24-4.25,7.88-6.36a.89.89,0,0,0,.37-.78q0-6.4,0-12.8c0-.18,0-.36,0-.56ZM47.92,47.51c-3.06,2.6-6.05,2.55-9-.05L27.64,58.29l31.56.05Zm1.41-1.15L60.52,57.1l0-19.81ZM37.52,46.3,26.37,37.25l0,19.78ZM60,35.39l-3.5-2.64v5.48ZM30.33,38.13V32.75l-3.45,2.59ZM46.18,24.07l0-.13-2.74-2.22L40.66,24a3,3,0,0,0,.35.06Z"/><path class="cls-2" d="M45.47,38.77l.27.81c-.23.1-.44.21-.66.28a5.26,5.26,0,0,1-7-5.75,5.34,5.34,0,0,1,6.34-4.6c4,.62,5.19,4.42,4.18,7.43a2.27,2.27,0,0,1-.36.62,1.74,1.74,0,0,1-3-.28,3.61,3.61,0,0,1-2.56.84,1.88,1.88,0,0,1-2-1.8,1.94,1.94,0,0,1,1.56-2.21A5.06,5.06,0,0,1,43.49,34a10.05,10.05,0,0,1,1.28.19,1.08,1.08,0,0,0-.5-1.2,2.87,2.87,0,0,0-2.89.3,9,9,0,0,1-.33-.95.42.42,0,0,1,.19-.34,4.2,4.2,0,0,1,3.52-.36,2,2,0,0,1,1.36,2c0,.91,0,1.81.08,2.72a1.56,1.56,0,0,0,.12.55.61.61,0,0,0,1,.2,1.62,1.62,0,0,0,.39-.65,4.73,4.73,0,0,0-1.54-5.27,5,5,0,0,0-5.68.1,4.76,4.76,0,0,0-1,5.89A4.25,4.25,0,0,0,44.77,39Zm-2.38-1.65a12.14,12.14,0,0,0,1.37-.6.87.87,0,0,0,.3-1.06c-.05-.17-.41-.3-.65-.34a4.94,4.94,0,0,0-1.27-.05,1,1,0,0,0-.91,1.08C42,36.74,42.37,37,43.09,37.12Z"/></g><text class="cls-3" transform="translate(24.47 92.74)">POR MAIL</text><text class="cls-4" transform="translate(25.01 151.22)"><tspan class="cls-5">Mandanos un mail al:</tspan><tspan class="cls-6"><tspan x="0" y="28.94">servicios@ikeasistencia.com</tspan></tspan></text><line class="cls-7" x1="24.09" y1="129.79" x2="73.27" y2="129.79"/></g></g></svg>