<svg xmlns="http://www.w3.org/2000/svg" viewBox="0 0 195.93 208.74"><defs><style>.cls-1{fill:#e7e6e6;}.cls-2{fill:#ff6c0c;}.cls-3{font-size:17.33px;font-family:Avenir-Black, Avenir;letter-spacing:0em;}.cls-3,.cls-4{fill:#111820;}.cls-4{font-size:11.56px;font-family:Avenir-Light, Avenir;}.cls-5{letter-spacing:0em;}.cls-6{font-size:15.68px;fill:#010101;font-family:Avenir-Heavy, Avenir;}.cls-7{fill:none;stroke:#ff6c0c;stroke-miterlimit:10;stroke-width:1.93px;}</style></defs><title>WebIkeAsset 4</title><g id="Layer_2" data-name="Layer 2"><g id="Layer_1-2" data-name="Layer 1"><rect class="cls-1" width="195.93" height="208.74"/><g id="_1jNnZR" data-name="1jNnZR"><path class="cls-2" d="M32.51,63.69c1-3.31,1.91-6.54,2.9-9.77a1.91,1.91,0,0,0-.17-1.64,21.53,21.53,0,0,1-2.65-11.92,21.49,21.49,0,0,1,7.08-14.92A21.06,21.06,0,0,1,51.8,19.83a21.44,21.44,0,0,1,15.63,4.08,21.27,21.27,0,0,1,8.87,14.53,21.19,21.19,0,0,1-5.64,18.12,21.94,21.94,0,0,1-26.83,4.36,1.64,1.64,0,0,0-1.41-.16c-3.12.94-6.24,1.86-9.36,2.78Zm3.81-3.8c2.33-.69,4.57-1.36,6.81-2a1.06,1.06,0,0,1,.76.11A19.59,19.59,0,0,0,54,61.07a18.71,18.71,0,0,0,14.84-6.3c5.26-5.87,6.59-12.68,3.84-20.06a19.29,19.29,0,0,0-24-11.53,18.67,18.67,0,0,0-13,14.15A19,19,0,0,0,38.2,52.26a.94.94,0,0,1,.12.86C37.65,55.34,37,57.57,36.32,59.89Z"/><path class="cls-2" d="M61.83,53.5A19.43,19.43,0,0,1,43.71,39.57,15.94,15.94,0,0,1,43,33a6,6,0,0,1,1.76-3.8A9.47,9.47,0,0,1,46.15,28a2.43,2.43,0,0,1,3,.26c1.55,1.48,3.07,3,4.54,4.56a2.51,2.51,0,0,1,0,3.3c-.35.43-.77.81-1.15,1.21a1.58,1.58,0,0,0-.05,2.4q2,2.09,4,4.15a1.79,1.79,0,0,0,2.56.05c.33-.3.62-.63.93-.94a2.73,2.73,0,0,1,3.86-.11Q66,44.93,68,47.08a2.81,2.81,0,0,1-.13,4A7.34,7.34,0,0,1,61.83,53.5ZM47.39,30.25a4.56,4.56,0,0,0-1.61,2.11,10.06,10.06,0,0,0,0,4.58,16.63,16.63,0,0,0,9.6,12.44,15.21,15.21,0,0,0,7.33,1.53A4.23,4.23,0,0,0,66.2,49s0-.07,0-.09c-1.33-1.34-2.65-2.67-4-4a.45.45,0,0,0-.43,0c-.36.31-.68.66-1,1a4.28,4.28,0,0,1-5.78,0c-1.59-1.51-3.11-3.1-4.56-4.74a4,4,0,0,1,0-5.31c.41-.48.87-.93,1.26-1.35Z"/></g><text class="cls-3" transform="translate(24.47 92.74)">POR WHATSAPP</text><text class="cls-4" transform="translate(25.01 151.22)"><tspan class="cls-5">Mandanos un mensaje al:</tspan><tspan class="cls-6"><tspan x="0" y="28.94">+54 9 11-3442-7999</tspan></tspan></text><line class="cls-7" x1="24.09" y1="129.79" x2="73.27" y2="129.79"/></g></g></svg>