<svg xmlns="http://www.w3.org/2000/svg" viewBox="0 0 195.93 208.74"><defs><style>.cls-1{fill:#e7e6e6;}.cls-2{font-size:17.33px;font-family:Avenir-Black, Avenir;letter-spacing:0em;}.cls-2,.cls-4{fill:#111820;}.cls-3{letter-spacing:0em;}.cls-4{font-size:11.56px;font-family:Avenir-Light, Avenir;letter-spacing:-0.02em;}.cls-5{letter-spacing:0em;}.cls-6{fill:none;stroke:#ff6c0c;stroke-miterlimit:10;stroke-width:1.93px;}.cls-7{fill:#ff6c0c;}</style></defs><title>WebIkeAsset 10</title><g id="Layer_2" data-name="Layer 2"><g id="Layer_1-2" data-name="Layer 1"><rect class="cls-1" width="195.93" height="208.74"/><text class="cls-2" transform="translate(24.47 92.74)">COMPLETANDO<tspan class="cls-3"><tspan x="0" y="21.18">EL FORMULARIO</tspan></tspan></text><text class="cls-4" transform="translate(25.01 151.22)">Un asesor se comunicará para<tspan class="cls-5"><tspan x="0" y="18.3">responder todas las dudas</tspan></tspan></text><line class="cls-6" x1="24.09" y1="129.79" x2="73.27" y2="129.79"/><g id="dUtVUz"><path class="cls-7" d="M64.62,62.89a.94.94,0,0,1-.84-.51c-.14-.25-.36-.87.49-1.36A1.09,1.09,0,0,0,64.84,60q0-9.91,0-19.82V28.71H34.74V29c0,.4,0,.78,0,1.17,0,.69-.39,1.14-1,1.14a1,1,0,0,1-1-1.15q0-3.54,0-7.07a2.92,2.92,0,0,1,3.1-3.12H52.41l11.31,0a2.83,2.83,0,0,1,2.87,1.9,4,4,0,0,1,.2,1.35q0,14.38,0,28.76v6.13c0,.71,0,1.43,0,2.14a2.82,2.82,0,0,1-1.53,2.49A1.31,1.31,0,0,1,64.62,62.89Zm-28.75-41A1,1,0,0,0,34.74,23c0,.42,0,.83,0,1.25,0,.73,0,1.46,0,2.19,0,.21,0,.25,0,.25s0,0,.28,0h29.8c0-.05,0-.1,0-.16V26c0-1,0-2,0-3,0-.8-.36-1.15-1.16-1.15H35.87Z"/><path class="cls-7" d="M65.14,28.42H34.44c0,.59,0,1.15,0,1.7s-.26.85-.67.85-.67-.33-.67-.86q0-3.53,0-7.07a2.62,2.62,0,0,1,2.81-2.82H52.24l11.47,0a2.53,2.53,0,0,1,2.59,1.7,3.79,3.79,0,0,1,.18,1.25q0,17,0,34c0,1,0,2,0,3a2.52,2.52,0,0,1-1.38,2.24A.72.72,0,0,1,64,62.24c-.2-.36-.08-.69.38-1A1.38,1.38,0,0,0,65.14,60q0-11.55,0-23.1,0-3.82,0-7.63C65.14,29,65.14,28.73,65.14,28.42Zm0-1.43c0-.17,0-.3,0-.44,0-1.18,0-2.36,0-3.53a1.3,1.3,0,0,0-1.46-1.45H35.87A1.3,1.3,0,0,0,34.45,23c0,1.14,0,2.29,0,3.43,0,.48.14.59.6.59H64.58Z"/><path class="cls-7" d="M35.92,63a2.92,2.92,0,0,1-3.13-3.14V46.35h0v-13a2.17,2.17,0,0,1,0-.42.94.94,0,0,1,1-.86.92.92,0,0,1,1,.89c0,.24,0,.47,0,.71v26.3c0,.84.35,1.18,1.17,1.18H52.86a1,1,0,0,1,1.1,1,1,1,0,0,1-1.08,1h-17Z"/><path class="cls-7" d="M33.09,46.65q0-6.61,0-13.21a3.12,3.12,0,0,1,0-.51.65.65,0,0,1,.7-.61.62.62,0,0,1,.63.61c0,.29,0,.58,0,.87q0,12.93,0,25.86c0,.09,0,.17,0,.26,0,1,.47,1.48,1.47,1.48H52.86c.5,0,.8.27.81.67s-.3.66-.79.68H35.92a2.63,2.63,0,0,1-2.84-2.84q0-6.63,0-13.26Z"/><path class="cls-7" d="M40.67,49.31a1.77,1.77,0,0,1-1.88-1.79c0-.51,0-1.05,0-1.66a1.79,1.79,0,0,1,2-1.89h18a1.81,1.81,0,0,1,2,2v.13c0,.46,0,.92,0,1.38a1.76,1.76,0,0,1-1.9,1.83H40.67Zm.06-2a.58.58,0,0,0,.23,0H57.73c1.1,0,1.1,0,1.13-1,0-.32,0-.37,0-.37s-.06,0-.31,0H41.15c-.32,0-.38.06-.39.06s-.05.41,0,.63a3.86,3.86,0,0,1,0,.57.38.38,0,0,0,0,.19Z"/><path class="cls-7" d="M49.85,44.27h8.91A1.53,1.53,0,0,1,60.5,46c0,.49,0,1,0,1.48A1.47,1.47,0,0,1,58.9,49H40.67a1.47,1.47,0,0,1-1.59-1.51c0-.54,0-1.09,0-1.64a1.5,1.5,0,0,1,1.66-1.6h9.11Zm-.11,3.4h8c1.42,0,1.39,0,1.43-1.4,0-.53-.14-.65-.66-.65-5.53,0-11.06,0-16.6,0-.47,0-1.12-.12-1.36.13s-.07.9-.11,1.38.13.54.55.54C43.9,47.66,46.82,47.67,49.74,47.67Z"/><path class="cls-7" d="M40.88,41.71a1.84,1.84,0,0,1-2.1-2.06c0-.41,0-.82,0-1.23a1.85,1.85,0,0,1,2.06-2.05H58.7a1.84,1.84,0,0,1,2.1,2.11v.32c0,.34,0,.68,0,1a1.8,1.8,0,0,1-2,1.89h-18Zm.92-3.39a2.61,2.61,0,0,0-1,.08,2.54,2.54,0,0,0-.08,1,2.37,2.37,0,0,0,0,.42,1.11,1.11,0,0,1,.38,0H57.68c1.17,0,1.17,0,1.18-1.16,0-.22,0-.26,0-.26h0a.56.56,0,0,0-.22,0H41.8Z"/><path class="cls-7" d="M49.74,41.42H40.88c-1.24,0-1.79-.54-1.8-1.77,0-.41,0-.82,0-1.23a1.55,1.55,0,0,1,1.76-1.76H58.7c1.26,0,1.8.55,1.8,1.81,0,.44,0,.89,0,1.33a1.51,1.51,0,0,1-1.66,1.6H49.74ZM49.84,38h-8c-1.37,0-1.37,0-1.37,1.34,0,.69,0,.69.7.69H57.68c1.49,0,1.47,0,1.48-1.51,0-.44-.14-.54-.56-.54C55.68,38,52.76,38,49.84,38Z"/><path class="cls-7" d="M60.74,66.41a1.52,1.52,0,0,1-1.32-.86c-.28-.46-.54-.93-.82-1.41l-.26-.46-.21.12-1.05.61a2,2,0,0,1-1,.28,1.43,1.43,0,0,1-1.38-1.59q0-3.89,0-7.78a1.42,1.42,0,0,1,1.38-1.56A1.74,1.74,0,0,1,57,54q3.43,1.94,6.82,3.94a1.51,1.51,0,0,1,.82,1.27,1.57,1.57,0,0,1-.83,1.33l-1.06.63-.27.16.25.43c.3.51.58,1,.85,1.51A1.47,1.47,0,0,1,63,65.38c-.44.27-.89.53-1.34.77A1.91,1.91,0,0,1,60.74,66.41Zm-2.2-4.83a1.56,1.56,0,0,1,1.36.89L61,64.29l.72-.41-.24-.42c-.29-.5-.57-1-.83-1.47a1.53,1.53,0,0,1,.65-2.26l.9-.52-5.42-3.13v6.26h0l.89-.5A1.9,1.9,0,0,1,58.54,61.58Z"/><path class="cls-7" d="M62.06,61.19c.44.77.85,1.47,1.24,2.19a1.18,1.18,0,0,1-.47,1.74c-.44.27-.88.52-1.33.77a1.21,1.21,0,0,1-1.82-.5c-.41-.69-.8-1.38-1.23-2.13l-1.52.87c-1,.57-1.89.09-1.9-1.06q0-3.89,0-7.78a1.13,1.13,0,0,1,1.8-1.06q3.43,1.94,6.82,3.93a1.14,1.14,0,0,1,0,2.09C63.14,60.58,62.62,60.87,62.06,61.19Zm-5.62-5.62v7.29c.49-.28.91-.53,1.34-.76a1.25,1.25,0,0,1,1.86.53l1.22,2.07L62.09,64c-.43-.75-.84-1.43-1.22-2.13A1.24,1.24,0,0,1,61.41,60l1.34-.78Z"/><path class="cls-7" d="M49.84,57.4c-.57,0-1.15,0-1.72,0a2.65,2.65,0,0,1,.05-5.3h3.24a2.65,2.65,0,0,1,.05,5.3Zm.89-2h.58a.7.7,0,1,0,0-1.39h-3a.66.66,0,0,0-.72.69.65.65,0,0,0,.69.7h2.46Z"/><path class="cls-7" d="M49.82,52.37c.53,0,1.06,0,1.58,0a2.35,2.35,0,0,1,.05,4.7c-1.11,0-2.22,0-3.32,0a2.35,2.35,0,0,1,0-4.7c.54,0,1.09,0,1.64,0Zm0,3.34c.51,0,1,0,1.53,0a1,1,0,1,0,0-2q-1.5,0-3,0a1,1,0,0,0-1,1,.94.94,0,0,0,1,1C48.77,55.73,49.28,55.71,49.79,55.71Z"/><path class="cls-7" d="M43.54,32.61a1,1,0,1,1,0-1.93H55.93c.88,0,1.2.5,1.2,1a.89.89,0,0,1-.25.65,1.31,1.31,0,0,1-.95.32H43.54Z"/><path class="cls-7" d="M49.79,31h6.14c.58,0,.9.24.91.67s-.32.67-.9.67H43.55c-.5,0-.8-.27-.8-.67s.31-.67.8-.67h6.24Z"/><path class="cls-7" d="M41.38,24.33a2,2,0,0,1,2-2.08,2.06,2.06,0,1,1,.05,4.11A2,2,0,0,1,41.38,24.33Zm2-.73a.7.7,0,0,0-.69.72.69.69,0,0,0,.69.67.7.7,0,1,0,0-1.39Z"/><path class="cls-7" d="M40.09,24.32a2.05,2.05,0,0,1-2.06,2,2.06,2.06,0,1,1,0-4.11A2.05,2.05,0,0,1,40.09,24.32Zm-2,.68a.69.69,0,0,0,.67-.7.68.68,0,0,0-.72-.7.7.7,0,1,0,0,1.4Z"/><path class="cls-7" d="M48.8,22.25a2.06,2.06,0,0,1,0,4.11,2.06,2.06,0,1,1,0-4.11Zm0,1.35a.7.7,0,1,0,0,1.4.7.7,0,0,0,0-1.4Z"/></g></g></g></svg>