<svg xmlns="http://www.w3.org/2000/svg" viewBox="0 0 618.22 62.33"><defs><style>.cls-1{fill:#e7e6e6;}.cls-2{fill:#ff6c0c;}.cls-3{font-size:17.33px;fill:#111820;font-family:Avenir-Black, Avenir;letter-spacing:0em;}</style></defs><title>WebIkeAsset 16</title><g id="Layer_2" data-name="Layer 2"><g id="Layer_1-2" data-name="Layer 1"><rect class="cls-1" width="618.22" height="62.33"/><path class="cls-2" d="M204,38.35a1.44,1.44,0,0,1-1-.52l-1-1c-.54-.54-1.08-1.07-1.6-1.62A.46.46,0,0,0,200,35l-.18,0a24.69,24.69,0,0,1-4.09.38,15.08,15.08,0,0,1-4-.51,12,12,0,0,1-8.83-8.52,12.22,12.22,0,0,1,3.85-13.24,12.22,12.22,0,0,1,8.29-3h1.66a13,13,0,0,1,5.81,1.24,12.13,12.13,0,0,1,6.7,7.92,12.33,12.33,0,0,1-3.06,12.28.76.76,0,0,1-.2.19,1.78,1.78,0,0,0-.83,1.93c.05.77,0,1.55,0,2.31,0,.34,0,.67,0,1a1.24,1.24,0,0,1-.68,1.29A1.15,1.15,0,0,1,204,38.35Zm-3.64-5.66a1.48,1.48,0,0,1,1.19.56c.36.42.74.82,1.13,1.21l.22.23v-.45c0-.62,0-1.24,0-1.85a1.86,1.86,0,0,1,.76-1.62,9.94,9.94,0,0,0,3.7-9.63A10,10,0,0,0,200.87,13a11.24,11.24,0,0,0-4.39-.79,25.51,25.51,0,0,0-2.67.16A10.24,10.24,0,0,0,184.71,21a10.43,10.43,0,0,0,6.41,11.34,13.15,13.15,0,0,0,4.71.82,19.94,19.94,0,0,0,4-.44A2.9,2.9,0,0,1,200.41,32.69Z"/><path class="cls-2" d="M181.05,54.16a1.4,1.4,0,0,1-1-.51l-.84-.85c-.69-.69-1.39-1.39-2.07-2.09a.81.81,0,0,0-.65-.29h-2.64c-.76,0-1.53,0-2.29,0a6.17,6.17,0,0,1-5.9-6.16c0-4.49,0-8.93,0-13.18a6.13,6.13,0,0,1,6-6.15c1.22,0,2.44,0,3.66,0h5a1.32,1.32,0,0,1,1,.36,1,1,0,0,1,.29.78,1.15,1.15,0,0,1-1.3,1.09H172a3.87,3.87,0,0,0-3.81,2.61,5.07,5.07,0,0,0-.26,1.63c0,4.2,0,8.39,0,12.59a4,4,0,0,0,4.3,4.27h5a1.58,1.58,0,0,1,1.24.55c.44.47.9.9,1.4,1.37l.19.18c0-.26,0-.52,0-.78,0-.91.42-1.31,1.32-1.31l2.3,0,2.46,0c1.15,0,2.1,0,3,.07h.5a4.82,4.82,0,0,0,3.65-1.34A5.05,5.05,0,0,0,194.28,43c-.08-1-.06-2.08,0-3.09,0-.42,0-.84,0-1.25a2.32,2.32,0,0,1,.09-.7,1,1,0,0,1,1-.72,1,1,0,0,1,1,.72,1.5,1.5,0,0,1,.08.52c0,.58,0,1.16,0,1.74,0,1.41,0,2.86,0,4.29a6.1,6.1,0,0,1-5.87,5.86c-1.18,0-2.36,0-3.54,0h-4.84c0,.08,0,.16,0,.24q0,1,0,2.09a1.24,1.24,0,0,1-.72,1.32A1.12,1.12,0,0,1,181.05,54.16Z"/><path class="cls-2" d="M171.62,38.71c-.26,0-1,0-1.18-.62a1.21,1.21,0,0,1,.08-1.1,1.7,1.7,0,0,1,1.14-.51h17.51a1.3,1.3,0,0,1,1.17.68,1,1,0,0,1-.11,1,1.6,1.6,0,0,1-1.15.54c-1.6,0-3.2,0-4.79,0Z"/><path class="cls-2" d="M171.6,43.47a1.43,1.43,0,0,1-1-.38,1,1,0,0,1-.29-.75c0-.67.54-1.1,1.35-1.1h14.14c.23,0,1,0,1.17.64a1.27,1.27,0,0,1-.09,1.09,1.51,1.51,0,0,1-1.06.5l-7.67,0Z"/><path class="cls-2" d="M171.64,33.93a1.39,1.39,0,0,1-1.24-.6,1,1,0,0,1,0-1.07,1.24,1.24,0,0,1,1.18-.56h11.9a2.21,2.21,0,0,1,.64.1.93.93,0,0,1,.69,1.07,1.79,1.79,0,0,1-.59.88,1,1,0,0,1-.67.17l-.1-.25v.25Z"/><path class="cls-2" d="M189.33,43.46a1.11,1.11,0,0,1-.79-1.86,1.08,1.08,0,0,1,.76-.35h0a1.11,1.11,0,0,1,.81,1.87,1.07,1.07,0,0,1-.76.34Z"/><path class="cls-2" d="M196.27,26.49a1.13,1.13,0,0,1-1.08-1.24c0-.47,0-.93,0-1.4v-.21a1.88,1.88,0,0,1,1.54-2.13,1.55,1.55,0,0,0,1.15-1.22,1.58,1.58,0,0,0-.59-1.66,1.5,1.5,0,0,0-1-.36,1.9,1.9,0,0,0-.75.17,1.5,1.5,0,0,0-.92,1.26l0,.14a2.32,2.32,0,0,1-.05.31,1.06,1.06,0,0,1-1,.86h-.12a1,1,0,0,1-1-1,3.53,3.53,0,0,1,1-2.67,3.73,3.73,0,0,1,2.83-1.28,4.07,4.07,0,0,1,1.53.31A3.86,3.86,0,0,1,200.13,20a3.76,3.76,0,0,1-2.61,3.57l-.12,0V24c0,.41,0,.83,0,1.25a1.14,1.14,0,0,1-1.11,1.26Z"/><path class="cls-2" d="M196.29,29.86a1.14,1.14,0,0,1-1.09-1.06,1.08,1.08,0,0,1,.31-.78,1.11,1.11,0,0,1,.79-.34,1.13,1.13,0,0,1,1.1,1.09,1.15,1.15,0,0,1-1.08,1.1Z"/><text class="cls-3" transform="translate(229.19 34.61)">PREGUNTAS FRECUENTES</text></g></g></svg>