<!DOCTYPE svg PUBLIC "-//W3C//DTD SVG 20010904//EN" "http://www.w3.org/TR/2001/REC-SVG-20010904/DTD/svg10.dtd">
<svg version="1.0" xmlns="http://www.w3.org/2000/svg" width="192px" height="108px" viewBox="0 0 1920 1080" preserveAspectRatio="xMidYMid meet">
<g id="layer101" fill="#ffffff" stroke="none">
 <path d="M310 1067 c-149 -43 -266 -162 -299 -307 -45 -195 63 -398 251 -473 72 -28 211 -30 287 -3 l54 19 18 -24 c10 -13 26 -39 36 -57 18 -32 18 -33 -12 -90 -23 -44 -36 -58 -55 -60 -63 -7 -71 -12 -68 -40 l3 -27 129 0 c114 0 130 2 140 18 15 25 -16 47 -67 47 l-38 0 23 43 23 42 238 3 237 2 -32 -64 c-45 -92 -40 -96 119 -96 139 0 172 10 193 59 25 62 -13 125 -85 136 -51 8 -86 -14 -69 -42 6 -10 20 -19 30 -21 58 -9 65 -13 62 -35 -3 -21 -9 -22 -97 -25 l-93 -3 57 108 c32 59 58 109 59 110 0 1 26 -5 56 -13 111 -29 229 -9 331 57 139 89 209 278 164 445 -81 299 -447 402 -675 188 -171 -160 -167 -435 8 -595 54 -50 55 -51 41 -80 l-14 -29 -135 208 c-91 140 -142 229 -158 275 -24 71 -23 87 8 87 22 0 34 28 19 46 -17 21 -165 19 -173 -2 -11 -27 -7 -35 24 -45 24 -9 33 -20 45 -62 8 -28 15 -54 15 -59 0 -4 -20 -8 -44 -8 l-44 0 -12 53 c-31 129 -114 232 -235 288 -77 36 -191 47 -265 26z m248 -91 c94 -48 170 -145 187 -239 l7 -37 -183 -2 c-179 -3 -184 -4 -187 -24 -2 -13 29 -71 83 -154 48 -72 89 -138 91 -145 3 -8 -11 -19 -40 -30 -65 -25 -184 -18 -251 15 -73 35 -148 114 -173 183 -26 69 -29 174 -7 236 34 96 114 176 213 214 71 26 191 19 260 -17z m1097 4 c28 -13 73 -48 102 -76 66 -68 95 -141 96 -241 0 -61 -4 -82 -32 -137 -60 -122 -175 -196 -305 -196 -59 0 -126 15 -126 28 0 3 34 70 76 150 78 150 87 187 46 187 -20 0 -36 -23 -106 -158 l-83 -158 -47 46 c-72 69 -101 140 -101 245 0 71 4 94 26 141 42 88 123 159 219 190 14 5 61 7 105 6 61 -2 92 -8 130 -27z m-910 -377 c-9 -49 -59 -144 -94 -177 l-27 -26 -69 107 c-39 58 -74 112 -78 120 -7 11 18 13 134 13 l141 0 -7 -37z m155 31 c0 -12 -182 -364 -189 -364 -3 0 -15 16 -25 35 l-19 35 42 49 c47 57 88 133 97 183 11 56 22 68 59 68 19 0 35 -3 35 -6z m177 -209 c60 -93 112 -176 117 -182 6 -10 -38 -13 -206 -13 l-214 0 94 186 c51 102 95 184 97 182 1 -1 52 -79 112 -173z"/>
 </g>

</svg>