<svg xmlns="http://www.w3.org/2000/svg" viewBox="0 0 52.98 53.01"><defs><style>.cls-1{fill:#ff6c0c;}</style></defs><title>WebIkeAsset 20</title><g id="Layer_2" data-name="Layer 2"><g id="Capa_1" data-name="Capa 1"><path class="cls-1" d="M53,26.77a26.26,26.26,0,0,1-6.52,17.62,24.22,24.22,0,0,1-12.93,7.76c-9.39,2.24-17.78.16-25-6.35A25.58,25.58,0,0,1,.15,28.94,26,26,0,0,1,6,9.25,24.46,24.46,0,0,1,20.54.63,26.08,26.08,0,0,1,43.85,6.68a25.84,25.84,0,0,1,8.92,16.78c.09.68.15,1.37.2,2.06C53,25.94,53,26.35,53,26.77ZM26.5,1.45a25,25,0,1,0,25,25.08A25.09,25.09,0,0,0,26.5,1.45Zm6.91,40.88a16.7,16.7,0,0,1-5.77-1.73A33.32,33.32,0,0,1,12.45,25.8a15.25,15.25,0,0,1-1.82-5.28,8.84,8.84,0,0,1,2.58-7.38c.47-.5,1-1,1.45-1.48a3,3,0,0,1,4.38,0q2.4,2.37,4.77,4.77a2.9,2.9,0,0,1,0,4.44c-.87.89-1.74,1.78-2.63,2.64a.73.73,0,0,0-.09,1.12,33.79,33.79,0,0,0,7.38,7.28.84.84,0,0,0,1.28-.11c.83-.87,1.7-1.7,2.56-2.54a2.93,2.93,0,0,1,4.4,0q2.36,2.32,4.7,4.67a3,3,0,0,1,0,4.55,12.92,12.92,0,0,1-3.83,3A9.9,9.9,0,0,1,33.41,42.33Z"/></g></g></svg>