<svg xmlns="http://www.w3.org/2000/svg" viewBox="0 0 20 20"><defs><style>.cls-1{fill:#fff;}</style></defs><title>WebIkeAsset 10</title><g id="Layer_2" data-name="Layer 2"><g id="lupa"><g id="VxIhZn"><path class="cls-1" d="M8,16.24l-1.11-.1a6.94,6.94,0,0,1-1.66-.42,7.94,7.94,0,0,1-2.08-1.16,8.19,8.19,0,0,1-1.88-2,8,8,0,0,1-1-2.41A8.48,8.48,0,0,1,0,8.34,8.38,8.38,0,0,1,.6,5,7.74,7.74,0,0,1,1.68,3.16,8,8,0,0,1,6.09.26,8.32,8.32,0,0,1,7.77,0,7.9,7.9,0,0,1,9.83.19a8.1,8.1,0,0,1,1.49.47A7.92,7.92,0,0,1,14,2.5a8.21,8.21,0,0,1,1.18,1.56A7.37,7.37,0,0,1,16,6a9,9,0,0,1,.21,1.08,7.89,7.89,0,0,1-.06,2.27,7.31,7.31,0,0,1-.43,1.54c-.17.41-.38.8-.58,1.2a.73.73,0,0,0-.06.17.37.37,0,0,0,.14.34l4,4a2.64,2.64,0,0,1,.75,1.26,1.66,1.66,0,0,1,0,.86,1.76,1.76,0,0,1-.54.81,1.58,1.58,0,0,1-1.68.32,2.73,2.73,0,0,1-1.07-.7L14.5,17l-1.87-1.87a.38.38,0,0,0-.38-.13.81.81,0,0,0-.2.09A8,8,0,0,1,9.7,16,6.79,6.79,0,0,1,8,16.21ZM8.1,14.1a6,6,0,1,0-6-6A6,6,0,0,0,8.1,14.1Z"/></g></g></g></svg>