<svg xmlns="http://www.w3.org/2000/svg" viewBox="0 0 53.89 47.07"><defs><style>.cls-1{fill:#fff;}</style></defs><title>WebIkeAsset 11</title><g id="Layer_2" data-name="Layer 2"><g id="Layer_1-2" data-name="Layer 1"><path class="cls-1" d="M20.08,47.06c-.78,0-1.12-.35-1.12-1.14q0-6.89,0-13.78c0-.75.37-1.1,1.15-1.11h6.45V28.72H20.39a1.34,1.34,0,0,1-1-.3.9.9,0,0,1-.23-.66c0-.65.4-1,1.22-1h6.14V25.11H25.46a5.2,5.2,0,0,1-.57,0c-2.49-.27-4.67-.52-6.69-.78a3.52,3.52,0,0,1-1.11-.4,1.35,1.35,0,0,1-.83-1.41c.45-3.11,1.42-5.18,3.13-6.73a9.49,9.49,0,0,1,1.47-1l.82-.51.13-.09-.13-.08L21.53,14a.93.93,0,0,0-.47-.24c-.29,0-.57,0-.86,0H18.93a1.26,1.26,0,0,1-1-.33,1.15,1.15,0,0,1-.18-.92c.06-.49.12-1,.17-1.47a31.1,31.1,0,0,1,.66-4.23A8.48,8.48,0,0,1,27.36,0l.78,0c3.33.21,5.6,1.39,7.15,3.72A10.7,10.7,0,0,1,36.89,8c.23,1.46.38,2.92.53,4.53a1.1,1.1,0,0,1-.2.86,1.21,1.21,0,0,1-.91.32H34.75l-1,0a1.31,1.31,0,0,0-.52.18l-.21.1L33,14l0,.13.09.22.41.19a8.86,8.86,0,0,1,.88.44,7.94,7.94,0,0,1,3.28,4.24,18.86,18.86,0,0,1,.76,2.7c.26,1.2-.12,1.86-1.24,2.14a43.16,43.16,0,0,1-4.85.86c-.81.11-1.62.13-2.48.16l-1.15,0h-.09v1.61H45.31c1.3,0,1.52.21,1.52,1.52V31h5.94c.77,0,1.12.36,1.12,1.14q0,6.86,0,13.71c0,.84-.34,1.17-1.22,1.17H38.9a1,1,0,0,1-1-1.1q0-6.92,0-13.84c0-.73.35-1.08,1.09-1.08h5.9V28.75H28.6V31l.33,0,.49,0h4.44c.78,0,1.13.35,1.13,1.12Q35,39,35,45.94c0,.78-.35,1.13-1.14,1.13H20.08Zm.88-2H33V33H21Zm18.84,0H51.88V33H39.8ZM22.73,16.22a2.12,2.12,0,0,0-1.17.4,7,7,0,0,0-1.63,1.46,9.77,9.77,0,0,0-1.7,4.25l0,.1.1,0a53,53,0,0,0,9.09.8h0a53.25,53.25,0,0,0,9-.79l.1,0,0-.1a9.16,9.16,0,0,0-2.46-5.13,4.81,4.81,0,0,0-1.21-.77,2.2,2.2,0,0,0-.93-.25,1.31,1.31,0,0,0-1,.47,1.62,1.62,0,0,1-.47.3l-.1,0a5.83,5.83,0,0,1-.58.24,2.08,2.08,0,0,0-1.12.68,2.33,2.33,0,0,0-.12,1.35,5.88,5.88,0,0,1,0,.66c0,.7-.36,1.1-.94,1.12h0c-.61,0-1-.42-1-1.13,0-.24,0-.47,0-.71s0-.69,0-1a.79.79,0,0,0-.44-.53c-.26-.12-.54-.22-.81-.31A4.81,4.81,0,0,1,24,16.7,2,2,0,0,0,22.73,16.22Zm.38-6.8c0,.31,0,.61,0,.9a10.64,10.64,0,0,0,0,1.86,4.28,4.28,0,0,0,4.22,3.66h0a4.17,4.17,0,0,0,1.75-.38c2.18-1,3-2.92,2.5-6V9.32H23.11ZM27.73,2c-.36,0-.73,0-1.1,0a6.17,6.17,0,0,0-4.89,2.5C20.27,6.55,20,9,19.8,11.34l0,.41h1.36V8.68c0-1,.28-1.33,1.31-1.34h9.91c1,0,1.33.33,1.33,1.34,0,.68,0,3.05,0,3.05h1.88l0-.12c-.09-.48-.18-1-.26-1.44C35.07,9.08,34.88,8,34.63,7a6.4,6.4,0,0,0-1.68-3.06A6.85,6.85,0,0,0,27.73,2Z"/><path class="cls-1" d="M8.25,47.07H1.16C.35,47.06,0,46.7,0,45.88q0-6.82,0-13.64C0,31.35.31,31,1.19,31H7.13V30c0-.65,0-1.28,0-1.91,0-1,.32-1.3,1.28-1.31H10c.51,0,1,0,1.52,0a1.11,1.11,0,0,1,.95.54.78.78,0,0,1,0,.8,1.49,1.49,0,0,1-.95.54,8.71,8.71,0,0,1-1.12.06H9.24l-.09.09,0,.08V31l.33,0,.48,0h4.89c.91,0,1.24.33,1.24,1.22q0,6.79,0,13.58c0,.85-.36,1.22-1.19,1.22ZM2,45.09H14V33H2Z"/><path class="cls-1" d="M15.88,28.72a1,1,0,0,1-1-.92,1,1,0,0,1,1-1,1,1,0,0,1,1,1,.93.93,0,0,1-.94,1Z"/></g></g></svg>