<svg xmlns="http://www.w3.org/2000/svg" viewBox="0 0 42.62 38"><defs><style>.cls-1{fill:#fff;}</style></defs><title>WebIkeAsset 12</title><g id="Layer_2" data-name="Layer 2"><g id="Layer_1-2" data-name="Layer 1"><g id="_4pvpqT" data-name="4pvpqT"><path class="cls-1" d="M6.93,35.75h8.84c0-.2,0-.39,0-.58,0-3,0-6.06,0-9.08a5.53,5.53,0,0,1,10.95-1,7.39,7.39,0,0,1,.11,1.37c0,2.9,0,5.8,0,8.7v.6h8.84v-.59q0-8.35,0-16.69a1.3,1.3,0,0,1,.42-1.15,1.07,1.07,0,0,1,1.12-.17,1,1,0,0,1,.67.9c0,.17,0,.35,0,.52q0,8.94,0,17.88c0,1.24-.33,1.57-1.59,1.57H26.1c-1.08,0-1.46-.38-1.46-1.45q0-5.11,0-10.22a3.33,3.33,0,1,0-6.65,0c0,3.41,0,6.82,0,10.22,0,1.11-.37,1.48-1.48,1.48H6.19c-1.11,0-1.48-.37-1.48-1.49q0-9,0-18a2.14,2.14,0,0,1,.14-.88,1,1,0,0,1,1.07-.55,1,1,0,0,1,.92.71,2.51,2.51,0,0,1,.09.75q0,8.3,0,16.6Z"/><path class="cls-1" d="M42.62,15.94a1.09,1.09,0,0,1-1.71.85c-.69-.45-1.34-1-2-1.44Q30.35,9.09,21.8,2.83a.68.68,0,0,0-1,0Q11.42,9.74,2,16.62c-.69.51-1.29.49-1.72,0a1.13,1.13,0,0,1,.34-1.69c1.08-.8,2.17-1.59,3.26-2.39L20.38.41a1.29,1.29,0,0,1,1.88,0L41.93,14.81A1.36,1.36,0,0,1,42.62,15.94Z"/></g></g></g></svg>