<svg xmlns="http://www.w3.org/2000/svg" viewBox="0 0 32.97 28.13"><defs><style>.cls-1{fill:#fff;}</style></defs><title>WebIkeAsset 8</title><g id="Layer_2" data-name="Layer 2"><g id="logo_ike" data-name="logo ike"><path class="cls-1" d="M27.07,18.23c0,.26-.36.46-.76.43l-6.63-.45c-.4,0-.71-.26-.7-.53v-.12c0-.26.36-.46.76-.43l6.63.45c.4,0,.72.26.7.52Z"/><path class="cls-1" d="M25.36,14.58c.22.15.21.54,0,.87L21.61,21c-.23.33-.59.48-.81.34l-.1-.07c-.22-.15-.21-.54,0-.87l3.74-5.5c.23-.33.59-.48.8-.33Z"/><path class="cls-1" d="M21.29,14.24c.24-.12.57.08.75.44l2.93,6c.18.36.13.75-.1.87l-.11.06c-.24.11-.57-.09-.75-.45l-2.93-6c-.18-.36-.13-.75.11-.87Z"/><path class="cls-1" d="M23.88,7.5c0,1.36,2.35,2,4.54,2,1.88,0,3.47-.4,4.16-1.08a1.16,1.16,0,0,0,0-1.75c-.68-.69-2.27-1.12-4.15-1.13C26.25,5.53,23.89,6.14,23.88,7.5Zm4.55-.83c2.18,0,3.33.64,3.41.88-.08.24-1.24.85-3.42.84S25.1,7.75,25,7.51C25.1,7.26,26.25,6.65,28.43,6.67Z"/><path class="cls-1" d="M30.82,14.83l0,0L23.09,9.56l0,0a2.69,2.69,0,0,0-3.94,1l-4.21,6.32c-1.12,1.55-1.09,2.74.13,3.87l-2.55.2a.56.56,0,0,0-.51.6l.24,3.31a.56.56,0,0,0,1.12,0s0,0,0,0L13.14,22l3.22-.26.06,0,1.16.79-1.88,2.2a.56.56,0,0,0-.06.65l1.52,2.51a.56.56,0,0,0,.77.19.57.57,0,0,0,.27-.48.57.57,0,0,0-.08-.29l-1.31-2.17,1.69-2,4.46,3,0,0,0,0c1.73.91,2.64.75,3.89-.7l0,0,4.56-6.76A2.62,2.62,0,0,0,30.82,14.83Zm-.26,3.27-4.51,6.68c-.84,1-1.17,1.12-2.48.43L16.1,20.13c-.59-.45-.89-.83-.89-1.28a2.54,2.54,0,0,1,.62-1.37l4.23-6.35a1.6,1.6,0,0,1,2.46-.59l7.6,5.19A1.7,1.7,0,0,1,31,17,2.1,2.1,0,0,1,30.56,18.1Z"/><path class="cls-1" d="M19.34,7.46A10.08,10.08,0,0,0,16,2.37,10.93,10.93,0,0,0,10.79,0c-.73-.12-1.27,0-1.49.42A.85.85,0,0,0,9.19.9a3.83,3.83,0,0,0,.55,1.59,10,10,0,0,0,1.42,2,2.08,2.08,0,0,0-.47,0,1.15,1.15,0,0,0-1,.61.84.84,0,0,0,0,.31,2.53,2.53,0,0,0,.62,1.49,6.49,6.49,0,0,0,1,.94,6.68,6.68,0,0,0-1.36.66,8.85,8.85,0,0,0-4.13,0A10.94,10.94,0,0,0,.66,11c-.55.49-.77,1-.61,1.42a.86.86,0,0,0,.27.37,3.94,3.94,0,0,0,1.58.58,10.13,10.13,0,0,0,2.41.13A2.24,2.24,0,0,0,4,13.9,1.16,1.16,0,0,0,3.9,15a.85.85,0,0,0,.21.23,2.52,2.52,0,0,0,1.55.46A6.71,6.71,0,0,0,7,15.57,3.44,3.44,0,0,0,6.82,17c0,.34.13,1.07.13,1.07a5.58,5.58,0,0,0,2.43-1.13,8.16,8.16,0,0,0,.25,1.4l.21.68.61-.37a4.48,4.48,0,0,0,1.34-1.27l.33.22a3,3,0,0,0,3.26-.37,3.32,3.32,0,0,0,.82-2.94,8,8,0,0,0-1.09-2.51L14.49,11l1-.5a14.11,14.11,0,0,0-1.57-.1,7.71,7.71,0,0,0-2.1-1.29l-.65-.24a2.84,2.84,0,0,1,1-.47,4.39,4.39,0,0,1,1.61,0,3.93,3.93,0,0,0-1.14-.7A4.44,4.44,0,0,1,11,6.1a.63.63,0,0,1-.13-.53c0-.1.9-.4,2.46.3A3.09,3.09,0,0,0,15.18,6a6.34,6.34,0,0,1-2.11-1.07A11.55,11.55,0,0,1,10.73,2a5.58,5.58,0,0,1-.37-.86l.25,0a10,10,0,0,1,4.74,2.13A9,9,0,0,1,18.28,7.8a6,6,0,0,1,.26,1.73A12.85,12.85,0,0,1,18,12.6l1.61-1.93V10.6A7.2,7.2,0,0,0,19.34,7.46ZM7.58,16.85h0l.06,0Zm3.83-6.73a6.25,6.25,0,0,1,3.69,4.36,3.37,3.37,0,0,1,0,.51,2,2,0,0,1-.57,1.46,2,2,0,0,1-1.88.17,1.44,1.44,0,0,1-.8-1.49A1,1,0,0,1,13,14.25a.64.64,0,0,1,.4.2c.49.46-.36,1.47-.36,1.47s1.45-.18,1.56-1a1.52,1.52,0,0,0-.33-1.14,1.67,1.67,0,0,0-1.18-.61A2.13,2.13,0,0,0,10.78,15a2.48,2.48,0,0,0,.43,1.79l-.84.81a5.64,5.64,0,0,1-.22-1A3.36,3.36,0,0,1,10.41,15a3.52,3.52,0,0,0-.57.22,7.94,7.94,0,0,0-1.24,1,2.78,2.78,0,0,1-.87.54,3.86,3.86,0,0,1,.35-1.61,5.51,5.51,0,0,1,1.05-1.34c-.34.09-.87.34-1.44.55a4.47,4.47,0,0,1-2.19.32c-.31,0-.44-.14-.5-.24s.26-.95,1.78-1.72a3.09,3.09,0,0,0,1.26-1.36,6.32,6.32,0,0,1-2.16,1,11.49,11.49,0,0,1-3.75,0,5.47,5.47,0,0,1-.9-.25,1.65,1.65,0,0,1,.17-.18A9.94,9.94,0,0,1,6.05,9.53,9,9,0,0,1,11.41,10.11Z"/></g></g></svg>