<svg xmlns="http://www.w3.org/2000/svg" viewBox="0 0 35.06 39.2"><defs><style>.cls-1{fill:#fff;}</style></defs><title>WebIkeAsset 18</title><g id="Layer_2" data-name="Layer 2"><g id="Layer_1-2" data-name="Layer 1"><path class="cls-1" d="M7.81,39.2c-.76,0-1.53,0-2.29,0a5.88,5.88,0,0,1-5.52-6c0-3.15,0-6.3,0-9.45v-8.1q0-4.74,0-9.49A5.8,5.8,0,0,1,3.45.53,5.74,5.74,0,0,1,6.08,0H24.82a9.11,9.11,0,0,1,.94.05A5.83,5.83,0,0,1,30.9,5.93V9.38q0,3,0,5.92a1.19,1.19,0,0,1-1.12,1.31,1.29,1.29,0,0,1-.43-.08,1,1,0,0,1-.73-.85,3.5,3.5,0,0,1,0-.64v-1q0-4,0-8a3.44,3.44,0,0,0-2-3.41,4.28,4.28,0,0,0-1.76-.37l-10.69,0h-8A3.53,3.53,0,0,0,2.34,6c0,.39,0,.78,0,1.18v6.36q0,9.71,0,19.42a3.69,3.69,0,0,0,1.4,3.14A3.63,3.63,0,0,0,6,36.85h5a1.13,1.13,0,0,1,1.11.68A1.08,1.08,0,0,1,12,38.72a1.06,1.06,0,0,1-.91.45H7.81Z"/><path class="cls-1" d="M18.09,39.16a1.07,1.07,0,0,1-.81-.34,1.25,1.25,0,0,1-.22-1.39l.58-1.91c.39-1.3.79-2.59,1.2-3.88a1.91,1.91,0,0,1,.46-.73q4.17-4.19,8.36-8.35a4.18,4.18,0,0,1,3-1.33,4.7,4.7,0,0,1,1.4.23,4.1,4.1,0,0,1,2.88,3.16,4.62,4.62,0,0,1,.09.65c0,.13,0,.24,0,.36a4.12,4.12,0,0,1-1.16,2.78q-2.4,2.43-4.82,4.83l-1.89,1.89-.51.52c-.4.41-.8.82-1.22,1.19a3,3,0,0,1-1.05.63c-1.17.35-2.34.67-3.51,1l-2.24.62A2.13,2.13,0,0,1,18.09,39.16ZM26.84,26.7l-.16.13-5.43,5.42a1,1,0,0,0-.28.41c-.23.72-.45,1.43-.68,2.19l-.46,1.49,1.49-.41,2.25-.63a1.36,1.36,0,0,0,.56-.38l3.79-3.78L29.09,30l.81-.78-2.76-2.76Zm3.88-3.13a2,2,0,0,0-1.64.89l-.22.28,2.67,2.68.28-.21A2,2,0,0,0,32.64,25a1.84,1.84,0,0,0-1.56-1.42Z"/><path class="cls-1" d="M7.54,11.69a1.31,1.31,0,0,1-1.07-.46,1.17,1.17,0,0,1,1-1.85H23.29a1.19,1.19,0,0,1,1.33.95,1.15,1.15,0,0,1-.24.95,1.26,1.26,0,0,1-1,.43H7.54Z"/><path class="cls-1" d="M7.54,17.94a1.31,1.31,0,0,1-1.07-.46,1.17,1.17,0,0,1,1-1.85H23.29a1.19,1.19,0,0,1,1.33.95,1.15,1.15,0,0,1-.24.95,1.26,1.26,0,0,1-1,.43H7.54Z"/><path class="cls-1" d="M7.48,24.19A1.14,1.14,0,0,1,6.26,23a1.1,1.1,0,0,1,.31-.81,1.35,1.35,0,0,1,1-.37H17a1.17,1.17,0,1,1,0,2.32H7.48Z"/></g></g></svg>