<svg xmlns="http://www.w3.org/2000/svg" viewBox="0 0 59.8 60.93"><defs><style>.cls-1{fill:#e7e6e6;}</style></defs><title>WebIkeAsset 2</title><g id="Layer_2" data-name="Layer 2"><g id="Layer_1-2" data-name="Layer 1"><path class="cls-1" d="M32.51,60.93a13.16,13.16,0,0,1-2.19-.2c-4.13-.7-8.14-2.57-12.63-5.87A49.31,49.31,0,0,1,2.34,37.12,19.4,19.4,0,0,1,0,28.23a7.77,7.77,0,0,1,2.44-5.89c1.25-1.19,2.49-2.44,3.68-3.65L7.76,17l.32-.3h0L20.24,28.8l-5.65,5.63.07.11A44.75,44.75,0,0,0,26.28,46.2l.11.07L32,40.63,44.17,52.78l-.27.29-1.62,1.59c-1.15,1.12-2.34,2.29-3.44,3.5A8.12,8.12,0,0,1,32.51,60.93ZM8.05,21.52l-.95.94c-.7.7-1.43,1.42-2.18,2.08A5,5,0,0,0,3.3,29.1a19.38,19.38,0,0,0,2.83,8.19A47.77,47.77,0,0,0,22,53.82a23.64,23.64,0,0,0,8.74,3.66,11,11,0,0,0,1.87.19,4.41,4.41,0,0,0,3.06-1.06c.93-.82,1.8-1.7,2.64-2.56L39.4,53l.11-.11-7.57-7.57-5.16,5.17A48.72,48.72,0,0,1,10.43,34l5.22-5.21L8.16,21.42Z"/><path class="cls-1" d="M54.61,37.37A24.56,24.56,0,0,0,42.52,5.68a23.89,23.89,0,0,0-10.4-2.34,24.43,24.43,0,0,0-20.53,11L8.94,12.59C13.59,4.94,22.64,0,32,0A27.81,27.81,0,0,1,57.53,38.65Z"/><path class="cls-1" d="M43.37,32.71v-3.4h-7v-.73c0-.9,0-1.77,0-2.64a.72.72,0,0,1,.18-.3l.83-1.06q3.42-4.41,6.86-8.8a1.15,1.15,0,0,1,.73-.35c.3,0,.61,0,.92,0H47.1V26h2.16v3.31H47.12v3.45ZM40,25.91h3.84v-5Z"/><path class="cls-1" d="M22.29,29.49a5.88,5.88,0,0,1,2.8-5.65c.69-.43,1.4-.83,2.11-1.24s1.19-.68,1.78-1a3,3,0,0,0,1-.89,1.31,1.31,0,0,0,.07-1.24,1.81,1.81,0,0,0-1.35-1,4.13,4.13,0,0,0-.69-.06,3.9,3.9,0,0,0-2.79,1.25l-.53.53-2.37-2.73a7.27,7.27,0,0,1,3.18-1.76,10.78,10.78,0,0,1,3.21-.5,10.58,10.58,0,0,1,1.78.15,4.1,4.1,0,0,1,3.66,3.12,4.25,4.25,0,0,1-2,4.59c-.67.45-1.36.87-2.06,1.29l-1.36.84a5.92,5.92,0,0,0-.6.46l-.35.28.12.33.12,0h6.48v3.23Z"/><polygon class="cls-1" points="51.02 43.32 53.23 40.14 56.08 41.8 53.56 45.42 51.02 43.32"/><polygon class="cls-1" points="45.93 48 48.89 45.59 51.17 47.99 47.79 50.72 45.93 48"/></g></g></svg>