<svg xmlns="http://www.w3.org/2000/svg" viewBox="0 0 93.31 109.08"><defs><style>.cls-1{fill:#111820;}</style></defs><title>WebIkeAsset 19</title><g id="Layer_2" data-name="Layer 2"><g id="Layer_1-2" data-name="Layer 1"><path class="cls-1" d="M3.49,102.76l3-10.15h0l3.06,10.15ZM5.68,90.87,0,108.83H1.6L3,104.11h7l1.44,4.73h1.66l-5.6-18Z"/><path class="cls-1" d="M17.37,109.08c-2.71,0-3.78-1.32-3.76-4h1.52c0,1.71.39,2.86,2.31,2.86a2,2,0,0,0,2.15-2.21c0-3.29-5.65-2.45-5.65-6.6,0-2.31,1.59-3.13,3.78-3.13C20.2,96,21,97.73,21,99.65H19.54c-.07-1.59-.5-2.44-2.19-2.44A1.79,1.79,0,0,0,15.43,99c0,3.14,5.65,2.29,5.65,6.5C21.08,107.89,19.71,109.08,17.37,109.08Z"/><path class="cls-1" d="M22.71,108.83V96.27h1.5v12.57Zm-.17-16.07V90.87h1.84v1.89Z"/><path class="cls-1" d="M29.58,109.08c-2.71,0-3.78-1.32-3.76-4h1.52c0,1.71.39,2.86,2.31,2.86a2,2,0,0,0,2.15-2.21c0-3.29-5.65-2.45-5.65-6.6,0-2.31,1.58-3.13,3.78-3.13,2.49,0,3.28,1.71,3.28,3.63H31.75c-.08-1.59-.5-2.44-2.19-2.44A1.79,1.79,0,0,0,27.64,99c0,3.14,5.65,2.29,5.65,6.5C33.29,107.89,31.92,109.08,29.58,109.08Z"/><path class="cls-1" d="M34.31,97.46v-1.2h2V93.68L37.82,93v3.23h2.54v1.2H37.82v8.06c0,1.67.18,2.06,1.37,2.06a7.48,7.48,0,0,0,1.17-.08v1.29a12.79,12.79,0,0,1-1.42.07c-2,0-2.61-.89-2.61-2.44v-9Z"/><path class="cls-1" d="M43,101.67c0-2.79.44-4.46,2.83-4.46s2.84,1.67,2.84,4.46Zm7.16,1.19c0-3.73,0-6.84-4.32-6.84-2.81,0-4.33,1.67-4.33,5.3v3.09c0,3.81,2.16,4.68,4.33,4.68,2.51,0,4.15-1,4.32-4.08H48.62a2.57,2.57,0,0,1-2.76,2.89c-2.37,0-2.83-2.31-2.83-4.05v-1Z"/><path class="cls-1" d="M53.39,108.83H51.9V96.27h1.49v1.55h0a3.64,3.64,0,0,1,3-1.79c3.11,0,3.43,2.31,3.43,4v8.86H58.42v-8.78c0-1.47-.57-2.84-2.32-2.84-1.34,0-2.71.92-2.71,3.74Z"/><path class="cls-1" d="M67.55,99.87c.07-1.57-.49-2.66-2.21-2.66a2.07,2.07,0,0,0-2,1.45,16.86,16.86,0,0,0-.35,3.95c0,2.27,0,5.28,2.31,5.28,2,0,2.22-1.24,2.29-2.76h1.49c.12,3.38-2.26,4-3.43,4-4.26,0-4.26-3.36-4.26-6.47a16.68,16.68,0,0,1,.37-4.15A3.63,3.63,0,0,1,65.53,96c2.16,0,3.63,1.21,3.5,3.85Z"/><path class="cls-1" d="M70.63,108.83V96.27h1.5v12.57Zm-.17-16.07V90.87H72.3v1.89Z"/><path class="cls-1" d="M80.55,104.7a3.22,3.22,0,0,1-3.11,3.18c-1.54,0-2.27-1.17-2.27-2.59,0-3.06,3.24-2.81,5.37-2.88Zm.1,4.13H82.2a25.32,25.32,0,0,1-.16-3.16V99.35c0-3.21-2.63-3.33-3.9-3.33C76,96,74.09,97,74,99.38h1.59c0-1.49,1.09-2.17,2.47-2.17,2,0,2.53,1.12,2.53,3v1c-2.53.21-7-.24-7,4.16,0,2.19,1.23,3.71,3.46,3.71a4,4,0,0,0,3.56-1.79h.05Z"/><path class="cls-1" d="M23.08,65.6l26-26H56l-26,26L48.12,85.74H41Z"/><path class="cls-1" d="M15.52,85.86V58.52h5.3V85.86Z"/><path class="cls-1" d="M0,85.86V58.52H5.3V85.86Z"/><path class="cls-1" d="M82.41,68.84c0-13-5.86-20.11-16.49-20.11-11.07,0-16.12,9.91-16.12,19.12C49.8,77.36,54.7,87,65.64,87c8.8,0,14.15-4.11,16.33-12.59l.06-.21H77.18l0,.13A10.44,10.44,0,0,1,67,82.71c-7.55,0-12-5-12.21-13.7H82.41ZM54.93,64.75C55.48,59.28,58.69,53,66,53c6.67,0,10.82,4.3,11.42,11.78Z"/><rect class="cls-1" y="49.29" width="5.3" height="5.2"/><polygon class="cls-1" points="70.72 44.86 75.89 39.65 82.29 39.65 77.12 44.86 70.72 44.86"/><path class="cls-1" d="M40.3,27.07c0,.39-.53.68-1.13.64L29.32,27c-.6,0-1.06-.39-1-.78v-.18c0-.39.53-.68,1.13-.64l9.85.67c.6,0,1.07.39,1,.78Z"/><path class="cls-1" d="M37.75,21.65c.32.22.31.8,0,1.3l-5.54,8.16c-.34.5-.88.72-1.2.5l-.15-.1c-.33-.22-.32-.8,0-1.29L36.41,22c.34-.49.87-.72,1.19-.49Z"/><path class="cls-1" d="M31.72,21.14c.35-.18.85.12,1.12.66l4.35,8.86c.27.54.19,1.12-.15,1.29l-.16.08c-.35.17-.85-.13-1.12-.66L31.4,22.5c-.26-.54-.19-1.12.16-1.29Z"/><path class="cls-1" d="M35.56,11.13c0,2,3.48,3,6.73,3,2.79,0,5.15-.6,6.17-1.61a1.73,1.73,0,0,0,0-2.59c-1-1-3.36-1.66-6.15-1.68C39.08,8.22,35.57,9.12,35.56,11.13ZM42.32,9.9c3.24,0,4.94.94,5.06,1.31-.12.36-1.84,1.26-5.07,1.24s-4.94-.94-5.06-1.31C37.37,10.78,39.08,9.88,42.32,9.9Z"/><path class="cls-1" d="M45.86,22l0,0L34.39,14.2l0,0c-2.43-1.29-4.4-.81-5.85,1.43L22.25,25c-1.67,2.31-1.62,4.07.19,5.74l-3.79.3a.84.84,0,0,0-.76.89l.36,4.91a.83.83,0,0,0,1.67-.06s0,0,0-.06l-.3-4.08,4.77-.38.09,0,1.72,1.18-2.78,3.27a.83.83,0,0,0-.08,1l2.26,3.73a.83.83,0,0,0,1.14.28A.83.83,0,0,0,27,40.49l-2-3.22,2.52-2.94,6.62,4.52,0,0,0,0c2.57,1.35,3.92,1.11,5.77-1l0,0,6.77-10C48.28,25.54,47.94,23.66,45.86,22Zm-.38,4.85s-6.34,9.41-6.69,9.92c-1.25,1.44-1.73,1.66-3.68.64L24,29.88c-.88-.68-1.32-1.24-1.32-1.9a3.77,3.77,0,0,1,.92-2l6.28-9.42c1-1.5,2-1.75,3.65-.88l11.29,7.7a2.53,2.53,0,0,1,1.23,1.92A3.11,3.11,0,0,1,45.48,26.87Z"/><path class="cls-1" d="M28.82,11.08a15,15,0,0,0-4.93-7.55A16.21,16.21,0,0,0,16.12.06C15-.12,14.23.11,13.91.67a1.27,1.27,0,0,0-.17.66,5.7,5.7,0,0,0,.81,2.36,15,15,0,0,0,2.1,2.91,2.91,2.91,0,0,0-.7,0,1.7,1.7,0,0,0-1.41.9,1.22,1.22,0,0,0-.07.45,3.75,3.75,0,0,0,.93,2.22,9.62,9.62,0,0,0,1.43,1.4,9.84,9.84,0,0,0-2,1,13.12,13.12,0,0,0-6.13,0,16.26,16.26,0,0,0-7.59,3.84c-.81.73-1.15,1.5-.91,2.1A1.29,1.29,0,0,0,.58,19a5.88,5.88,0,0,0,2.34.87,15.22,15.22,0,0,0,3.58.2,3.46,3.46,0,0,0-.42.55,1.71,1.71,0,0,0-.19,1.67,1.22,1.22,0,0,0,.31.34,3.73,3.73,0,0,0,2.3.68,9.93,9.93,0,0,0,2-.22,5.09,5.09,0,0,0-.27,2.1c0,.51.19,1.59.19,1.59A8.27,8.27,0,0,0,14,25.12a12,12,0,0,0,.38,2.09l.32,1,.91-.56a6.63,6.63,0,0,0,2-1.88c.16.12.32.22.49.33A4.53,4.53,0,0,0,23,25.57a4.93,4.93,0,0,0,1.21-4.36,11.94,11.94,0,0,0-1.62-3.72l-.95-1.2,1.49-.75a20.5,20.5,0,0,0-2.33-.15,11.41,11.41,0,0,0-3.11-1.92c-.3-.12-.62-.24-1-.35a4.2,4.2,0,0,1,1.49-.7,6.47,6.47,0,0,1,2.39,0,5.81,5.81,0,0,0-1.69-1,6.62,6.62,0,0,1-2.44-2.35.93.93,0,0,1-.19-.79c.06-.14,1.34-.59,3.65.44a4.58,4.58,0,0,0,2.74.18,9.37,9.37,0,0,1-3.13-1.59A17.14,17.14,0,0,1,16,2.94a8.4,8.4,0,0,1-.55-1.27,2.16,2.16,0,0,1,.37,0,14.77,14.77,0,0,1,7,3.16,13.39,13.39,0,0,1,4.34,6.72,8.94,8.94,0,0,1,.38,2.57,19.11,19.11,0,0,1-.85,4.56l2.39-2.87,0-.09A10.66,10.66,0,0,0,28.82,11.08ZM11.35,25h0l.09,0ZM17,15a9.29,9.29,0,0,1,5.48,6.48,5.08,5.08,0,0,1,.07.76,3,3,0,0,1-.85,2.17,3,3,0,0,1-2.79.25,2.13,2.13,0,0,1-1.19-2.22,1.48,1.48,0,0,1,1.62-1.29.94.94,0,0,1,.6.29c.73.69-.54,2.19-.54,2.19s2.15-.27,2.32-1.55a2.25,2.25,0,0,0-.48-1.69,2.49,2.49,0,0,0-1.75-.9,3.16,3.16,0,0,0-3.42,2.75,3.68,3.68,0,0,0,.64,2.65L15.5,26.1a8.44,8.44,0,0,1-.33-1.47,5,5,0,0,1,.39-2.35,5.07,5.07,0,0,0-.85.33,11.77,11.77,0,0,0-1.84,1.47,4.1,4.1,0,0,1-1.3.8,5.73,5.73,0,0,1,.51-2.39,8.23,8.23,0,0,1,1.56-2c-.51.14-1.29.51-2.13.81a6.64,6.64,0,0,1-3.25.48c-.46-.05-.66-.21-.74-.35S7.92,20,10.18,18.9a4.59,4.59,0,0,0,1.87-2,9.39,9.39,0,0,1-3.21,1.43,17,17,0,0,1-5.57-.05,8.22,8.22,0,0,1-1.33-.37,2.61,2.61,0,0,1,.26-.27,14.76,14.76,0,0,1,6.89-3.47A13.39,13.39,0,0,1,17,15Z"/><path class="cls-1" d="M93.31,100A3.93,3.93,0,1,1,89.39,96,3.92,3.92,0,0,1,93.31,100ZM86,100a3.35,3.35,0,1,0,3.36-3.34A3.34,3.34,0,0,0,86,100Zm2.61,2.27h-.73V97.7h1.8A1.13,1.13,0,0,1,91,98.83a1.09,1.09,0,0,1-1,1v0c.57.06.76.24.8,1.15a5.75,5.75,0,0,0,.18,1.18h-.72a4.5,4.5,0,0,1-.19-1.51.59.59,0,0,0-.68-.51h-.73Zm0-2.6h.94a.66.66,0,0,0,.66-.73.63.63,0,0,0-.66-.69h-.94Z"/></g></g></svg>