<svg xmlns="http://www.w3.org/2000/svg" viewBox="0 0 195.93 208.74"><defs><style>.cls-1{fill:#e7e6e6;}.cls-2,.cls-7{fill:none;stroke:#ff6c0c;stroke-miterlimit:10;}.cls-2{stroke-width:2.41px;}.cls-3{font-size:17.33px;font-family:Avenir-Black, Avenir;letter-spacing:0em;}.cls-3,.cls-4{fill:#111820;}.cls-4{font-size:11.56px;font-family:Avenir-Light, Avenir;}.cls-5{letter-spacing:0em;}.cls-6{font-size:18.09px;fill:#010101;font-family:Avenir-Heavy, Avenir;}.cls-7{stroke-width:1.93px;}</style></defs><title>WebIkeAsset 6</title><g id="Layer_2" data-name="Layer 2"><g id="Layer_1-2" data-name="Layer 1"><rect class="cls-1" width="195.93" height="208.74"/><path class="cls-2" d="M53.24,61.88A21,21,0,0,1,46,59.7,42,42,0,0,1,26.85,41.07a19.2,19.2,0,0,1-2.29-6.65,11.13,11.13,0,0,1,3.25-9.29c.59-.63,1.21-1.25,1.83-1.86a3.79,3.79,0,0,1,5.52,0q3,3,6,6a3.64,3.64,0,0,1,0,5.58C40,36,38.95,37.09,37.83,38.19a.92.92,0,0,0-.11,1.42A42.54,42.54,0,0,0,47,48.77a1.05,1.05,0,0,0,1.61-.14c1-1.09,2.14-2.14,3.22-3.2a3.69,3.69,0,0,1,5.54,0q3,2.93,5.92,5.88a3.76,3.76,0,0,1-.05,5.73,16.27,16.27,0,0,1-4.83,3.79A12.46,12.46,0,0,1,53.24,61.88Z"/><text class="cls-3" transform="translate(24.47 92.74)">POR TELEFONO</text><text class="cls-4" transform="translate(25.01 151.22)"><tspan class="cls-5">Llamanos al:</tspan><tspan class="cls-6"><tspan x="0" y="28.94">0800-123-0752</tspan></tspan></text><line class="cls-7" x1="24.09" y1="129.79" x2="73.27" y2="129.79"/></g></g></svg>