<svg xmlns="http://www.w3.org/2000/svg" viewBox="0 0 32.51 42.93"><defs><style>.cls-1{fill:#ff6c0c;}</style></defs><title>WebIkeAsset 13</title><g id="Layer_2" data-name="Layer 2"><g id="Layer_1-2" data-name="Layer 1"><path class="cls-1" d="M1.17,42.93C.23,42.93,0,42.7,0,41.77q0-19,0-38C0,2.9.24,2.66,1.18,2.66h9.09V1.75c0-.31,0-.6,0-.89a.81.81,0,0,1,.9-.86H21.29c.62,0,.93.34,1,1,0,.26,0,.51,0,.79v.84H31.3c.91,0,1.21.29,1.21,1.21V41.72c0,.92-.29,1.21-1.2,1.21H1.17Zm.59-1.74h29V4.41H22.25v.77c0,.23,0,.46,0,.68,0,.74-.36,1.08-1.06,1.08H11.32c-.74,0-1-.31-1.06-1.07,0-.23,0-.47,0-.71V4.4H1.76ZM12,5.18h8.47V1.75H12Z"/><path class="cls-1" d="M16.4,37.73a.89.89,0,0,1-.94-.54.82.82,0,0,1,0-.72A.85.85,0,0,1,16,36a1.6,1.6,0,0,1,.34,0h10c.57,0,1,.28,1,.74a.84.84,0,0,1-.19.68,1,1,0,0,1-.76.31h-10ZM8.5,37.6a.8.8,0,0,1-.79-.76,7.29,7.29,0,0,1,0-1.11.87.87,0,0,0-.58-.92,3.2,3.2,0,0,1-1.49-1.33.86.86,0,0,1,.17-1.14.89.89,0,0,1,.53-.19A.84.84,0,0,1,7,32.5a2,2,0,0,0,1.36.92h.19a1.71,1.71,0,0,0,1.68-1.51A1.68,1.68,0,0,0,8.75,30l-.32,0a6.11,6.11,0,0,1-.92-.17,3.33,3.33,0,0,1-2.37-3.09,3.4,3.4,0,0,1,2-3.26,1,1,0,0,0,.52-.76,5.88,5.88,0,0,0,0-.69c0-.16,0-.33,0-.49a.83.83,0,0,1,.84-.85.79.79,0,0,1,.82.69,7.38,7.38,0,0,1,0,1.18.92.92,0,0,0,.58,1,3.19,3.19,0,0,1,1.49,1.33A.84.84,0,0,1,11.26,26a.9.9,0,0,1-.5.16.83.83,0,0,1-.66-.35,1.89,1.89,0,0,0-1.54-.91,1.66,1.66,0,0,0-1.7,1.44,1.64,1.64,0,0,0,1.21,1.86c.25.06.5.1.75.14a5.77,5.77,0,0,1,.76.15,3.39,3.39,0,0,1,.42,6.3.93.93,0,0,0-.6.94,6.21,6.21,0,0,1,0,1.14.79.79,0,0,1-.82.7Zm7.9-5a1.1,1.1,0,0,1-.8-.27.8.8,0,0,1-.21-.59.87.87,0,0,1,1-.84h10a1.09,1.09,0,0,1,.8.27.8.8,0,0,1,.21.59.88.88,0,0,1-1,.84H16.4Zm0-5.12c-.56,0-.93-.26-1-.71a.83.83,0,0,1,.17-.69,1,1,0,0,1,.78-.33h10c.56,0,.93.26,1,.71a.84.84,0,0,1-.17.69,1,1,0,0,1-.78.32h-10Zm-.16-5.15a.82.82,0,0,1-.85-.74.84.84,0,0,1,.6-.93,1.69,1.69,0,0,1,.42,0h9.92a1.11,1.11,0,0,1,.81.27.8.8,0,0,1,.21.59c0,.73-.66.84-1,.84H16.24ZM6.18,17.2c-.29,0-1-.07-1-.75a.84.84,0,0,1,.7-1,2.32,2.32,0,0,1,.41,0h20c.45,0,1,.12,1.09.72a.83.83,0,0,1-.17.69,1,1,0,0,1-.79.32H6.18Zm0-5.14a.89.89,0,0,1-1-.7.83.83,0,0,1,.17-.68,1,1,0,0,1,.78-.32H26.4a.86.86,0,0,1,.76,1.41.94.94,0,0,1-.72.29H6.13Z"/><path class="cls-1" d="M8.5,37.6a.8.8,0,0,1-.79-.76,7.29,7.29,0,0,1,0-1.11.87.87,0,0,0-.58-.92,3.2,3.2,0,0,1-1.49-1.33.86.86,0,0,1,.17-1.14.89.89,0,0,1,.53-.19A.84.84,0,0,1,7,32.5a2,2,0,0,0,1.36.92h.19a1.71,1.71,0,0,0,1.68-1.51A1.68,1.68,0,0,0,8.75,30l-.32,0a6.11,6.11,0,0,1-.92-.17,3.33,3.33,0,0,1-2.37-3.09,3.4,3.4,0,0,1,2-3.26,1,1,0,0,0,.52-.76,5.88,5.88,0,0,0,0-.69c0-.16,0-.33,0-.49a.83.83,0,0,1,.84-.85.79.79,0,0,1,.82.69,7.38,7.38,0,0,1,0,1.18.91.91,0,0,0,.58,1,3.19,3.19,0,0,1,1.49,1.33A.84.84,0,0,1,11.26,26a.9.9,0,0,1-.5.16.83.83,0,0,1-.66-.35,1.89,1.89,0,0,0-1.54-.91,1.66,1.66,0,0,0-1.7,1.44,1.64,1.64,0,0,0,1.21,1.86c.25.06.5.1.75.14a5.77,5.77,0,0,1,.76.15,3.39,3.39,0,0,1,.42,6.3.93.93,0,0,0-.6.94,6.21,6.21,0,0,1,0,1.14.79.79,0,0,1-.82.7Z"/><path class="cls-1" d="M6.18,17.2c-.29,0-1-.07-1-.75a.84.84,0,0,1,.7-1,2.32,2.32,0,0,1,.41,0h20c.45,0,1,.12,1.09.72a.83.83,0,0,1-.17.69,1,1,0,0,1-.79.32H6.18Z"/><path class="cls-1" d="M6.13,12.06a.89.89,0,0,1-1-.7.83.83,0,0,1,.17-.68,1,1,0,0,1,.78-.32H26.4a.86.86,0,0,1,.76,1.41.94.94,0,0,1-.72.29H6.13Z"/><path class="cls-1" d="M16.4,27.46c-.56,0-.93-.26-1-.71a.83.83,0,0,1,.17-.69,1,1,0,0,1,.78-.33h10c.56,0,.93.26,1,.71a.84.84,0,0,1-.17.69,1,1,0,0,1-.78.32h-10Z"/><path class="cls-1" d="M16.4,37.73a.89.89,0,0,1-.94-.54.82.82,0,0,1,0-.72A.85.85,0,0,1,16,36a1.6,1.6,0,0,1,.34,0h10c.57,0,1,.28,1,.74a.84.84,0,0,1-.19.68,1,1,0,0,1-.76.31h-10Z"/><path class="cls-1" d="M16.24,22.32a.82.82,0,0,1-.85-.74.84.84,0,0,1,.6-.93,1.69,1.69,0,0,1,.42,0h9.92a1.11,1.11,0,0,1,.81.27.8.8,0,0,1,.21.59c0,.73-.66.84-1,.84H16.24Z"/><path class="cls-1" d="M16.4,32.58a1.1,1.1,0,0,1-.8-.27.8.8,0,0,1-.21-.59.87.87,0,0,1,1-.84h10a1.09,1.09,0,0,1,.8.27.8.8,0,0,1,.21.59.88.88,0,0,1-1,.84H16.4Z"/></g></g></svg>