<svg xmlns="http://www.w3.org/2000/svg" viewBox="0 0 195.93 208.74"><defs><style>.cls-1{fill:#e7e6e6;}.cls-2{font-size:17.33px;font-family:Avenir-Black, Avenir;letter-spacing:0em;}.cls-2,.cls-3{fill:#111820;}.cls-3{font-size:11.56px;font-family:Avenir-Light, Avenir;letter-spacing:-0.02em;}.cls-4{fill:none;stroke:#ff6c0c;stroke-miterlimit:10;stroke-width:1.93px;}.cls-5{fill:#ff6c0c;}</style></defs><title>WebIkeAsset 14</title><g id="Layer_2" data-name="Layer 2"><g id="Layer_1-2" data-name="Layer 1"><rect class="cls-1" width="195.93" height="208.74"/><text class="cls-2" transform="translate(24.47 92.74)">MI FACTURA</text><text class="cls-3" transform="translate(25.01 151.22)">Podés descargarte todas<tspan x="0" y="18.3">tus facturas</tspan></text><line class="cls-4" x1="24.09" y1="129.79" x2="73.27" y2="129.79"/><path class="cls-5" d="M25.82,65.74c-.94,0-1.17-.23-1.17-1.16q0-19,0-38c0-.92.24-1.16,1.18-1.16h9.09v-.91c0-.31,0-.6,0-.89a.81.81,0,0,1,.9-.86H45.93c.62,0,.93.34,1,1,0,.26,0,.51,0,.79v.84h9.05c.91,0,1.21.29,1.21,1.21V64.53c0,.92-.29,1.21-1.2,1.21H25.82ZM26.4,64h29V27.22H46.89V28c0,.23,0,.46,0,.68,0,.74-.36,1.08-1.06,1.08H36c-.74,0-1-.31-1.06-1.07,0-.23,0-.47,0-.71v-.77H26.4ZM36.67,28h8.47V24.55H36.67Z"/><path class="cls-5" d="M41,60.54A.89.89,0,0,1,40.1,60a.82.82,0,0,1,0-.72.85.85,0,0,1,.58-.44,1.6,1.6,0,0,1,.34,0H51c.57,0,1,.28,1,.74a.84.84,0,0,1-.19.68,1,1,0,0,1-.76.31H41Zm-7.9-.13a.8.8,0,0,1-.79-.76,7.29,7.29,0,0,1,0-1.11.87.87,0,0,0-.58-.92,3.2,3.2,0,0,1-1.49-1.33.86.86,0,0,1,.17-1.14A.89.89,0,0,1,31,55a.84.84,0,0,1,.66.35,2,2,0,0,0,1.36.92h.19a1.71,1.71,0,0,0,1.68-1.51,1.68,1.68,0,0,0-1.48-1.88l-.32,0a6.11,6.11,0,0,1-.92-.17,3.33,3.33,0,0,1-2.37-3.09,3.4,3.4,0,0,1,2-3.26,1,1,0,0,0,.52-.76,5.88,5.88,0,0,0,0-.69c0-.16,0-.33,0-.49a.83.83,0,0,1,.84-.85.79.79,0,0,1,.82.69,7.38,7.38,0,0,1,0,1.18.92.92,0,0,0,.58,1,3.19,3.19,0,0,1,1.49,1.33.84.84,0,0,1-.21,1.15.9.9,0,0,1-.5.16.83.83,0,0,1-.66-.35,1.89,1.89,0,0,0-1.54-.91,1.66,1.66,0,0,0-1.7,1.44A1.64,1.64,0,0,0,32.72,51c.25.06.5.1.75.14a5.77,5.77,0,0,1,.76.15,3.39,3.39,0,0,1,.42,6.3.93.93,0,0,0-.6.94,6.21,6.21,0,0,1,0,1.14.79.79,0,0,1-.82.7Zm7.9-5a1.1,1.1,0,0,1-.8-.27.8.8,0,0,1-.21-.59.87.87,0,0,1,1-.84H51a1.09,1.09,0,0,1,.8.27.8.8,0,0,1,.21.59.88.88,0,0,1-1,.84H41Zm0-5.12c-.56,0-.93-.26-1-.71a.83.83,0,0,1,.17-.69,1,1,0,0,1,.78-.33H51c.56,0,.93.26,1,.71a.84.84,0,0,1-.17.69,1,1,0,0,1-.78.32H41Zm-.16-5.15a.82.82,0,0,1-.85-.74.84.84,0,0,1,.6-.93,1.69,1.69,0,0,1,.42,0H51a1.11,1.11,0,0,1,.81.27.8.8,0,0,1,.21.59c0,.73-.66.84-1,.84H40.89ZM30.82,40c-.29,0-1-.07-1-.75a.84.84,0,0,1,.7-1,2.32,2.32,0,0,1,.41,0h20c.45,0,1,.12,1.09.72a.83.83,0,0,1-.17.69A1,1,0,0,1,51,40H30.82Zm0-5.14a.89.89,0,0,1-1-.7.83.83,0,0,1,.17-.68,1,1,0,0,1,.78-.32H51a.86.86,0,0,1,.76,1.41.94.94,0,0,1-.72.29H30.77Z"/><path class="cls-5" d="M33.14,60.4a.8.8,0,0,1-.79-.76,7.29,7.29,0,0,1,0-1.11.87.87,0,0,0-.58-.92,3.2,3.2,0,0,1-1.49-1.33.86.86,0,0,1,.17-1.14A.89.89,0,0,1,31,55a.84.84,0,0,1,.66.35,2,2,0,0,0,1.36.92h.19a1.71,1.71,0,0,0,1.68-1.51,1.68,1.68,0,0,0-1.48-1.88l-.32,0a6.11,6.11,0,0,1-.92-.17,3.33,3.33,0,0,1-2.37-3.09,3.4,3.4,0,0,1,2-3.26,1,1,0,0,0,.52-.76,5.88,5.88,0,0,0,0-.69c0-.16,0-.33,0-.49a.83.83,0,0,1,.84-.85.79.79,0,0,1,.82.69,7.38,7.38,0,0,1,0,1.18.91.91,0,0,0,.58,1,3.19,3.19,0,0,1,1.49,1.33.84.84,0,0,1-.21,1.15.9.9,0,0,1-.5.16.83.83,0,0,1-.66-.35,1.89,1.89,0,0,0-1.54-.91,1.66,1.66,0,0,0-1.7,1.44A1.64,1.64,0,0,0,32.72,51c.25.06.5.1.75.14a5.77,5.77,0,0,1,.76.15,3.39,3.39,0,0,1,.42,6.3.93.93,0,0,0-.6.94,6.21,6.21,0,0,1,0,1.14.79.79,0,0,1-.82.7Z"/><path class="cls-5" d="M30.82,40c-.29,0-1-.07-1-.75a.84.84,0,0,1,.7-1,2.32,2.32,0,0,1,.41,0h20c.45,0,1,.12,1.09.72a.83.83,0,0,1-.17.69A1,1,0,0,1,51,40H30.82Z"/><path class="cls-5" d="M30.77,34.87a.89.89,0,0,1-1-.7.83.83,0,0,1,.17-.68,1,1,0,0,1,.78-.32H51a.86.86,0,0,1,.76,1.41.94.94,0,0,1-.72.29H30.77Z"/><path class="cls-5" d="M41,50.27c-.56,0-.93-.26-1-.71a.83.83,0,0,1,.17-.69,1,1,0,0,1,.78-.33H51c.56,0,.93.26,1,.71a.84.84,0,0,1-.17.69,1,1,0,0,1-.78.32H41Z"/><path class="cls-5" d="M41,60.54A.89.89,0,0,1,40.1,60a.82.82,0,0,1,0-.72.85.85,0,0,1,.58-.44,1.6,1.6,0,0,1,.34,0H51c.57,0,1,.28,1,.74a.84.84,0,0,1-.19.68,1,1,0,0,1-.76.31H41Z"/><path class="cls-5" d="M40.89,45.13a.82.82,0,0,1-.85-.74.84.84,0,0,1,.6-.93,1.69,1.69,0,0,1,.42,0H51a1.11,1.11,0,0,1,.81.27.8.8,0,0,1,.21.59c0,.73-.66.84-1,.84H40.89Z"/><path class="cls-5" d="M41,55.39a1.1,1.1,0,0,1-.8-.27.8.8,0,0,1-.21-.59.87.87,0,0,1,1-.84H51a1.09,1.09,0,0,1,.8.27.8.8,0,0,1,.21.59.88.88,0,0,1-1,.84H41Z"/></g></g></svg>