<svg xmlns="http://www.w3.org/2000/svg" viewBox="0 0 42.53 42.22"><defs><style>.cls-1{fill:none;stroke:#ff6c0c;stroke-miterlimit:10;stroke-width:2.41px;}</style></defs><title>WebIkeAsset 5</title><g id="Layer_2" data-name="Layer 2"><g id="Layer_1-2" data-name="Layer 1"><path class="cls-1" d="M30,41a21,21,0,0,1-7.26-2.18A42,42,0,0,1,3.58,20.2a19.2,19.2,0,0,1-2.29-6.65A11.13,11.13,0,0,1,4.54,4.26C5.14,3.63,5.75,3,6.37,2.4a3.79,3.79,0,0,1,5.52,0q3,3,6,6a3.64,3.64,0,0,1,0,5.58c-1.09,1.12-2.19,2.24-3.31,3.33a.92.92,0,0,0-.11,1.42,42.54,42.54,0,0,0,9.29,9.17,1.05,1.05,0,0,0,1.61-.14c1-1.09,2.14-2.14,3.22-3.2a3.69,3.69,0,0,1,5.54,0q3,2.93,5.92,5.88A3.76,3.76,0,0,1,40,36.19,16.27,16.27,0,0,1,35.15,40,12.46,12.46,0,0,1,30,41Z"/></g></g></svg>