<?xml version="1.0" encoding="utf-8"?>
<!-- Generator: Adobe Illustrator 24.0.1, SVG Export Plug-In . SVG Version: 6.00 Build 0)  -->
<svg version="1.1" id="Layer_1" xmlns="http://www.w3.org/2000/svg" xmlns:xlink="http://www.w3.org/1999/xlink" x="0px" y="0px"
	 viewBox="0 0 1080 1080" style="enable-background:new 0 0 1080 1080;" xml:space="preserve">
<style type="text/css">
	.st0{fill:#FFFFFF;}
	.st1{fill:#262728;}
	.st2{fill:none;stroke:#313E56;stroke-width:5;stroke-linecap:round;stroke-linejoin:round;stroke-miterlimit:10;}
	.st3{fill:#D2DBFF;}
	.st4{fill:#313E56;}
	.st5{fill:#8896FF;}
	.st6{fill:#FCFBF7;}
	.st7{fill:#DDB97A;}
	.st8{fill:#F9B326;}
	.st9{fill:#F97C1E;}
	.st10{fill:#D2DBFF;stroke:#AF2334;stroke-width:22;stroke-miterlimit:10;}
	.st11{fill:none;stroke:#8896FF;stroke-width:15;stroke-linecap:round;stroke-linejoin:round;stroke-miterlimit:10;}
	.st12{fill:#D2DBFF;stroke:#8896FF;stroke-width:15;stroke-linecap:round;stroke-linejoin:round;stroke-miterlimit:10;}
	.st13{fill:#8242CC;}
	.st14{fill:none;stroke:#D2DBFF;stroke-width:5;stroke-linecap:round;stroke-linejoin:round;stroke-miterlimit:10;}
	.st15{fill:#25996A;}
	.st16{fill:none;stroke:#D2DBFF;stroke-width:5;stroke-miterlimit:10;}
	.st17{fill:none;stroke:#F9B326;stroke-width:15;stroke-miterlimit:10;}
	.st18{fill:none;stroke:#F97C1E;stroke-width:15;stroke-miterlimit:10;}
	.st19{fill:none;stroke:#AF2334;stroke-width:15;stroke-miterlimit:10;}
	.st20{fill:none;stroke:#25996A;stroke-width:15;stroke-miterlimit:10;}
	.st21{fill:none;stroke:#8242CC;stroke-width:15;stroke-miterlimit:10;}
	.st22{fill:#D2DBFF;stroke:#8896FF;stroke-width:22;stroke-miterlimit:10;}
</style>
<rect x="0" y="0" class="st0" width="1080" height="1080"/>
<rect x="316.41" y="686.48" width="77.93" height="88.52"/>
<path d="M805.55,686.48h-531.1V541.7c0-20.68,16.77-37.45,37.45-37.45H768.1c20.68,0,37.45,16.77,37.45,37.45V686.48z"/>
<path d="M763.59,504.25H316.41v-91.8c0-45.97,37.26-83.23,83.23-83.23h280.72c45.97,0,83.23,37.26,83.23,83.23V504.25z"/>
<path class="st0" d="M708.34,504.79h-340.1v-76.77c0-31.13,25.23-56.36,56.36-56.36h227.39c31.13,0,56.36,25.23,56.36,56.36V504.79z
	"/>
<rect x="685.66" y="686.48" width="77.93" height="88.52"/>
<g>
	<rect x="320.82" y="578.64" class="st0" width="94.46" height="40.33"/>
</g>
<g>
	<rect x="661.53" y="578.64" class="st0" width="94.46" height="40.33"/>
</g>
<rect x="535.38" y="265" width="5" height="63.68"/>
<rect x="274.12" y="656.12" class="st0" width="531.76" height="30.78"/>
<path d="M682.23,506.84c-1.38,0-2.5-1.12-2.5-2.5c0-27.01-21.97-48.98-48.98-48.98s-48.98,21.97-48.98,48.98
	c0,1.38-1.12,2.5-2.5,2.5s-2.5-1.12-2.5-2.5c0-29.76,24.21-53.98,53.98-53.98s53.98,24.21,53.98,53.98
	C684.73,505.73,683.61,506.84,682.23,506.84z"/>
<path d="M804.15,688H277.92c-1.38,0-2.5-1.12-2.5-2.5s1.12-2.5,2.5-2.5h526.23c1.38,0,2.5,1.12,2.5,2.5S805.53,688,804.15,688z"/>
</svg>
