<?xml version="1.0" encoding="utf-8"?>
<!-- Generator: Adobe Illustrator 24.0.1, SVG Export Plug-In . SVG Version: 6.00 Build 0)  -->
<svg version="1.1" id="Layer_1" xmlns="http://www.w3.org/2000/svg" xmlns:xlink="http://www.w3.org/1999/xlink" x="0px" y="0px"
	 viewBox="0 0 1080 1080" style="enable-background:new 0 0 1080 1080;" xml:space="preserve">
<style type="text/css">
	.st0{fill:#FFFFFF;}
	.st1{fill:#262728;}
	.st2{fill:none;stroke:#313E56;stroke-width:5;stroke-linecap:round;stroke-linejoin:round;stroke-miterlimit:10;}
	.st3{fill:#D2DBFF;}
	.st4{fill:#313E56;}
	.st5{fill:#8896FF;}
	.st6{fill:#FCFBF7;}
	.st7{fill:#DDB97A;}
	.st8{fill:#F9B326;}
	.st9{fill:#F97C1E;}
	.st10{fill:#D2DBFF;stroke:#AF2334;stroke-width:22;stroke-miterlimit:10;}
	.st11{fill:none;stroke:#8896FF;stroke-width:15;stroke-linecap:round;stroke-linejoin:round;stroke-miterlimit:10;}
	.st12{fill:#D2DBFF;stroke:#8896FF;stroke-width:15;stroke-linecap:round;stroke-linejoin:round;stroke-miterlimit:10;}
	.st13{fill:#8242CC;}
	.st14{fill:none;stroke:#D2DBFF;stroke-width:5;stroke-linecap:round;stroke-linejoin:round;stroke-miterlimit:10;}
	.st15{fill:#25996A;}
	.st16{fill:none;stroke:#D2DBFF;stroke-width:5;stroke-miterlimit:10;}
	.st17{fill:none;stroke:#F9B326;stroke-width:15;stroke-miterlimit:10;}
	.st18{fill:none;stroke:#F97C1E;stroke-width:15;stroke-miterlimit:10;}
	.st19{fill:none;stroke:#AF2334;stroke-width:15;stroke-miterlimit:10;}
	.st20{fill:none;stroke:#25996A;stroke-width:15;stroke-miterlimit:10;}
	.st21{fill:none;stroke:#8242CC;stroke-width:15;stroke-miterlimit:10;}
	.st22{fill:#D2DBFF;stroke:#8896FF;stroke-width:22;stroke-miterlimit:10;}
</style>
<rect x="0" y="0" width="1080" height="1080"/>
<g>
	<path class="st0" d="M796.29,424.62c0-58.24-47.21-105.45-105.45-105.45l-0.05,0c-3.09,0-5.92-1.67-7.45-4.34
		C657.47,269.8,603.01,235,540,235s-117.47,34.8-143.34,79.83c-1.54,2.68-4.37,4.34-7.45,4.34l-0.05,0
		c-58.24,0-105.45,47.21-105.45,105.45c0,31.01,13.39,58.9,34.7,78.19c33.25,30.1,52.31,72.79,52.31,117.64c0,0,0,146.51,0,195.35
		C370.71,827.23,502.79,845,540,845s169.29-17.77,169.29-29.19c0-48.84,0-195.35,0-195.35c0-44.85,19.06-87.54,52.31-117.64
		C782.91,483.52,796.29,455.63,796.29,424.62z"/>
	<path class="st0" d="M331.47,353.69h-20.48l10.24-17.73l3.77-6.53c2.87-4.98,10.06-4.98,12.93,0l3.77,6.53l10.24,17.73H331.47z"/>
	<path class="st0" d="M615.19,267.63h-20.48l10.24-17.73l3.77-6.53c2.87-4.98,10.06-4.98,12.93,0l3.77,6.53l10.24,17.73H615.19z"/>
	<path class="st0" d="M749.48,353.69H729l10.24-17.73l3.77-6.53c2.87-4.98,10.06-4.98,12.93,0l3.77,6.53l10.24,17.73H749.48z"/>
	<path class="st0" d="M465.76,267.63h-20.48l10.24-17.73l3.77-6.53c2.87-4.98,10.06-4.98,12.93,0l3.77,6.53l10.24,17.73H465.76z"/>
</g>
<g>
	<circle cx="388.68" cy="424.15" r="45.4"/>
	<circle cx="484.2" cy="360.78" r="45.4"/>
	<circle cx="691.32" cy="424.15" r="45.4"/>
	<circle cx="595.8" cy="360.78" r="45.4"/>
	<path d="M621.8,482.36c-14.77-6.13-27.65-15.97-37.91-28.24C573.4,441.58,557.63,433.6,540,433.6s-33.4,7.98-43.89,20.52
		c-10.26,12.27-23.14,22.11-37.91,28.24c-25.5,10.59-43.28,36.01-42.56,65.5c0.9,36.97,31.33,66.94,68.3,67.31
		c8.35,0.08,16.37-1.32,23.8-3.95c20.82-7.39,43.7-7.39,64.52,0c7.43,2.64,15.45,4.04,23.8,3.95c36.98-0.37,67.4-30.35,68.3-67.31
		C665.08,518.38,647.3,492.95,621.8,482.36z"/>
	<path d="M540,299.92c-1.38,0-2.5-1.12-2.5-2.5v-51.07c0-1.38,1.12-2.5,2.5-2.5s2.5,1.12,2.5,2.5v51.07
		C542.5,298.8,541.38,299.92,540,299.92z"/>
	<path d="M410.91,354.3c-0.89,0-1.75-0.47-2.2-1.31l-12.29-22.7c-0.66-1.21-0.21-2.73,1.01-3.39c1.22-0.66,2.73-0.21,3.39,1.01
		l12.29,22.7c0.66,1.21,0.21,2.73-1.01,3.39C411.72,354.2,411.31,354.3,410.91,354.3z"/>
	<path d="M667.2,354.3c-0.4,0-0.81-0.1-1.19-0.3c-1.21-0.66-1.67-2.17-1.01-3.39l12.29-22.7c0.66-1.21,2.18-1.66,3.39-1.01
		c1.21,0.66,1.67,2.17,1.01,3.39l-12.29,22.7C668.95,353.83,668.09,354.3,667.2,354.3z"/>
</g>
<path class="st0" d="M370.71,815.81c0,11.42,99.3,29.19,169.29,29.19c82.28,0,169.29-17.77,169.29-29.19"/>
</svg>
