<?xml version="1.0" encoding="utf-8"?>
<!-- Generator: Adobe Illustrator 24.0.1, SVG Export Plug-In . SVG Version: 6.00 Build 0)  -->
<svg version="1.1" id="Layer_1" xmlns="http://www.w3.org/2000/svg" xmlns:xlink="http://www.w3.org/1999/xlink" x="0px" y="0px"
	 viewBox="0 0 1080 1080" style="enable-background:new 0 0 1080 1080;" xml:space="preserve">
<style type="text/css">
	.st0{fill:#FFFFFF;}
	.st1{fill:#262728;}
	.st2{fill:none;stroke:#313E56;stroke-width:5;stroke-linecap:round;stroke-linejoin:round;stroke-miterlimit:10;}
	.st3{fill:#D2DBFF;}
	.st4{fill:#313E56;}
	.st5{fill:#8896FF;}
	.st6{fill:#FCFBF7;}
	.st7{fill:#DDB97A;}
	.st8{fill:#F9B326;}
	.st9{fill:#F97C1E;}
	.st10{fill:#D2DBFF;stroke:#AF2334;stroke-width:22;stroke-miterlimit:10;}
	.st11{fill:none;stroke:#8896FF;stroke-width:15;stroke-linecap:round;stroke-linejoin:round;stroke-miterlimit:10;}
	.st12{fill:#D2DBFF;stroke:#8896FF;stroke-width:15;stroke-linecap:round;stroke-linejoin:round;stroke-miterlimit:10;}
	.st13{fill:#8242CC;}
	.st14{fill:none;stroke:#D2DBFF;stroke-width:5;stroke-linecap:round;stroke-linejoin:round;stroke-miterlimit:10;}
	.st15{fill:#25996A;}
	.st16{fill:none;stroke:#D2DBFF;stroke-width:5;stroke-miterlimit:10;}
	.st17{fill:none;stroke:#F9B326;stroke-width:15;stroke-miterlimit:10;}
	.st18{fill:none;stroke:#F97C1E;stroke-width:15;stroke-miterlimit:10;}
	.st19{fill:none;stroke:#AF2334;stroke-width:15;stroke-miterlimit:10;}
	.st20{fill:none;stroke:#25996A;stroke-width:15;stroke-miterlimit:10;}
	.st21{fill:none;stroke:#8242CC;stroke-width:15;stroke-miterlimit:10;}
	.st22{fill:#D2DBFF;stroke:#8896FF;stroke-width:22;stroke-miterlimit:10;}
</style>
<rect x="0" y="0" width="1080" height="1080"/>
<g>
	<path class="st0" d="M768.19,802.3H311.32c-9.02,0-16.32-7.31-16.32-16.32v-337.3h489.51v337.3
		C784.51,794.99,777.2,802.3,768.19,802.3z"/>
	<g>
		<rect x="646.19" y="292.08" class="st0" width="93.18" height="155.56"/>
		<path class="st0" d="M539.76,448.67H295.03l122.36-107.33l108.88-95.51c7.86-6.9,19.1-6.9,26.97,0l108.88,95.51l122.36,107.33
			H539.76z"/>
	</g>
</g>
<rect x="462.08" y="571.56" width="155.32" height="231.78"/>
<path d="M785,450.14H295.52c-1.38,0-2.5-1.12-2.5-2.5s1.12-2.5,2.5-2.5H785c1.38,0,2.5,1.12,2.5,2.5S786.38,450.14,785,450.14z"/>
<path class="st0" d="M617.15,804.54H461.92c-1.38,0-2.5-1.12-2.5-2.5s1.12-2.5,2.5-2.5h155.23c1.38,0,2.5,1.12,2.5,2.5
	S618.53,804.54,617.15,804.54z"/>
<path class="st0" d="M602.48,689.69h-18.67c-1.38,0-2.5-1.12-2.5-2.5s1.12-2.5,2.5-2.5h18.67c1.38,0,2.5,1.12,2.5,2.5
	S603.86,689.69,602.48,689.69z"/>
</svg>
