<?xml version="1.0" encoding="utf-8"?>
<!-- Generator: Adobe Illustrator 24.0.1, SVG Export Plug-In . SVG Version: 6.00 Build 0)  -->
<svg version="1.1" id="Layer_1" xmlns="http://www.w3.org/2000/svg" xmlns:xlink="http://www.w3.org/1999/xlink" x="0px" y="0px"
	 viewBox="0 0 1080 1080" style="enable-background:new 0 0 1080 1080;" xml:space="preserve">
<style type="text/css">
	.st0{fill:#FFFFFF;}
	.st1{fill:#262728;}
	.st2{fill:none;stroke:#313E56;stroke-width:5;stroke-linecap:round;stroke-linejoin:round;stroke-miterlimit:10;}
	.st3{fill:#D2DBFF;}
	.st4{fill:#313E56;}
	.st5{fill:#8896FF;}
	.st6{fill:#FCFBF7;}
	.st7{fill:#DDB97A;}
	.st8{fill:#F9B326;}
	.st9{fill:#F97C1E;}
	.st10{fill:#D2DBFF;stroke:#AF2334;stroke-width:22;stroke-miterlimit:10;}
	.st11{fill:none;stroke:#8896FF;stroke-width:15;stroke-linecap:round;stroke-linejoin:round;stroke-miterlimit:10;}
	.st12{fill:#D2DBFF;stroke:#8896FF;stroke-width:15;stroke-linecap:round;stroke-linejoin:round;stroke-miterlimit:10;}
	.st13{fill:#8242CC;}
	.st14{fill:none;stroke:#D2DBFF;stroke-width:5;stroke-linecap:round;stroke-linejoin:round;stroke-miterlimit:10;}
	.st15{fill:#25996A;}
	.st16{fill:none;stroke:#D2DBFF;stroke-width:5;stroke-miterlimit:10;}
	.st17{fill:none;stroke:#F9B326;stroke-width:15;stroke-miterlimit:10;}
	.st18{fill:none;stroke:#F97C1E;stroke-width:15;stroke-miterlimit:10;}
	.st19{fill:none;stroke:#AF2334;stroke-width:15;stroke-miterlimit:10;}
	.st20{fill:none;stroke:#25996A;stroke-width:15;stroke-miterlimit:10;}
	.st21{fill:none;stroke:#8242CC;stroke-width:15;stroke-miterlimit:10;}
	.st22{fill:#D2DBFF;stroke:#8896FF;stroke-width:22;stroke-miterlimit:10;}
</style>
<rect x="0" y="0" width="1080" height="1080"/>
<g>
	<path class="st0" d="M663.76,830.5H416.24c-22.63,0-40.97-18.34-40.97-40.97V290.47c0-22.63,18.34-40.97,40.97-40.97h247.51
		c22.63,0,40.97,18.34,40.97,40.97v499.06C704.73,812.16,686.38,830.5,663.76,830.5z"/>
	<path class="st0" d="M375,411.03c-1.38,0-2.5-1.12-2.5-2.5v-45.51c0-1.38,1.12-2.5,2.5-2.5s2.5,1.12,2.5,2.5v45.51
		C377.5,409.91,376.38,411.03,375,411.03z"/>
	<path class="st0" d="M375,471.03c-1.38,0-2.5-1.12-2.5-2.5v-45.51c0-1.38,1.12-2.5,2.5-2.5s2.5,1.12,2.5,2.5v45.51
		C377.5,469.91,376.38,471.03,375,471.03z"/>
	<path class="st0" d="M705,411.03c-1.38,0-2.5-1.12-2.5-2.5v-45.51c0-1.38,1.12-2.5,2.5-2.5s2.5,1.12,2.5,2.5v45.51
		C707.5,409.91,706.38,411.03,705,411.03z"/>
</g>
<path d="M675.93,758.54H404.07c-9.09,0-16.47-7.37-16.47-16.47V326.29c0-9.09,7.37-16.47,16.47-16.47h271.85
	c9.09,0,16.47,7.37,16.47,16.47v415.78C692.39,751.16,685.02,758.54,675.93,758.54z"/>
<path d="M540,816.07c-11.88,0-21.55-9.67-21.55-21.55c0-11.88,9.67-21.55,21.55-21.55s21.55,9.67,21.55,21.55
	C561.55,806.4,551.88,816.07,540,816.07z M540,777.97c-9.12,0-16.55,7.42-16.55,16.55c0,9.12,7.42,16.55,16.55,16.55
	s16.55-7.42,16.55-16.55C556.55,785.39,549.12,777.97,540,777.97z"/>
<path d="M562.75,284.28h-45.51c-1.38,0-2.5-1.12-2.5-2.5s1.12-2.5,2.5-2.5h45.51c1.38,0,2.5,1.12,2.5,2.5
	S564.13,284.28,562.75,284.28z"/>
</svg>
