<?xml version="1.0" encoding="utf-8"?>
<!-- Generator: Adobe Illustrator 24.0.1, SVG Export Plug-In . SVG Version: 6.00 Build 0)  -->
<svg version="1.1" id="Layer_1" xmlns="http://www.w3.org/2000/svg" xmlns:xlink="http://www.w3.org/1999/xlink" x="0px" y="0px"
	 viewBox="0 0 1080 1080" style="enable-background:new 0 0 1080 1080;" xml:space="preserve">
<style type="text/css">
	.st0{fill:#FFFFFF;}
	.st1{fill:#262728;}
	.st2{fill:none;stroke:#313E56;stroke-width:5;stroke-linecap:round;stroke-linejoin:round;stroke-miterlimit:10;}
	.st3{fill:#D2DBFF;}
	.st4{fill:#313E56;}
	.st5{fill:#8896FF;}
	.st6{fill:#FCFBF7;}
	.st7{fill:#DDB97A;}
	.st8{fill:#F9B326;}
	.st9{fill:#F97C1E;}
	.st10{fill:#D2DBFF;stroke:#AF2334;stroke-width:22;stroke-miterlimit:10;}
	.st11{fill:none;stroke:#8896FF;stroke-width:15;stroke-linecap:round;stroke-linejoin:round;stroke-miterlimit:10;}
	.st12{fill:#D2DBFF;stroke:#8896FF;stroke-width:15;stroke-linecap:round;stroke-linejoin:round;stroke-miterlimit:10;}
	.st13{fill:#8242CC;}
	.st14{fill:none;stroke:#D2DBFF;stroke-width:5;stroke-linecap:round;stroke-linejoin:round;stroke-miterlimit:10;}
	.st15{fill:#25996A;}
	.st16{fill:none;stroke:#D2DBFF;stroke-width:5;stroke-miterlimit:10;}
	.st17{fill:none;stroke:#F9B326;stroke-width:15;stroke-miterlimit:10;}
	.st18{fill:none;stroke:#F97C1E;stroke-width:15;stroke-miterlimit:10;}
	.st19{fill:none;stroke:#AF2334;stroke-width:15;stroke-miterlimit:10;}
	.st20{fill:none;stroke:#25996A;stroke-width:15;stroke-miterlimit:10;}
	.st21{fill:none;stroke:#8242CC;stroke-width:15;stroke-miterlimit:10;}
	.st22{fill:#D2DBFF;stroke:#8896FF;stroke-width:22;stroke-miterlimit:10;}
</style>
<rect x="0" y="0" width="1080" height="1080"/>
<circle cx="338.52" cy="605.69" r="135.52"/>
<path class="st0" d="M338.52,752.21c-80.79,0-146.52-65.73-146.52-146.52c0-80.79,65.73-146.52,146.52-146.52
	c80.79,0,146.52,65.73,146.52,146.52C485.04,686.48,419.31,752.21,338.52,752.21z M338.52,481.17
	c-68.66,0-124.52,55.86-124.52,124.52c0,68.66,55.86,124.52,124.52,124.52c68.66,0,124.52-55.86,124.52-124.52
	C463.04,537.03,407.18,481.17,338.52,481.17z"/>
<path class="st0" d="M338.52,639.42c-18.6,0-33.73-15.13-33.73-33.73s15.13-33.73,33.73-33.73c18.6,0,33.73,15.13,33.73,33.73
	S357.12,639.42,338.52,639.42z M338.52,576.96c-15.84,0-28.73,12.89-28.73,28.73s12.89,28.73,28.73,28.73s28.73-12.89,28.73-28.73
	S354.37,576.96,338.52,576.96z"/>
<circle cx="741.48" cy="605.69" r="135.52"/>
<path class="st0" d="M741.48,752.21c-80.79,0-146.52-65.73-146.52-146.52c0-80.79,65.73-146.52,146.52-146.52
	c80.79,0,146.52,65.73,146.52,146.52C888,686.48,822.27,752.21,741.48,752.21z M741.48,481.17c-68.66,0-124.52,55.86-124.52,124.52
	c0,68.66,55.86,124.52,124.52,124.52c68.66,0,124.52-55.86,124.52-124.52C866,537.03,810.14,481.17,741.48,481.17z"/>
<path class="st0" d="M741.48,639.42c-18.6,0-33.73-15.13-33.73-33.73s15.13-33.73,33.73-33.73c18.6,0,33.73,15.13,33.73,33.73
	S760.08,639.42,741.48,639.42z M741.48,576.96c-15.84,0-28.73,12.89-28.73,28.73s12.89,28.73,28.73,28.73s28.73-12.89,28.73-28.73
	S757.32,576.96,741.48,576.96z"/>
<path class="st0" d="M741.91,613.42H541.78c-2.68,0-5.16-1.43-6.5-3.75s-1.34-5.18,0-7.5l100.06-173.32
	c1.34-2.32,3.82-3.75,6.5-3.75s5.16,1.43,6.5,3.75l100.07,173.32c1.34,2.32,1.34,5.18,0,7.5S744.59,613.42,741.91,613.42z
	 M554.77,598.42h174.15L641.85,447.6L554.77,598.42z"/>
<path class="st0" d="M541.29,614.01c-0.47,0-0.95-0.04-1.43-0.14c-3.14-0.61-5.55-3.15-6-6.32c-0.09-0.62-9.31-62.83-49.84-114.5
	c-31.48-40.14-87.32-53.3-87.88-53.43c-3.72-0.85-6.21-4.36-5.78-8.15c0.43-3.79,3.63-6.66,7.45-6.66l243.99-0.09c0,0,0,0,0,0
	c2.68,0,5.15,1.43,6.49,3.75c1.34,2.32,1.34,5.18,0,7.5L547.78,610.26C546.43,612.61,543.93,614.01,541.29,614.01z M439.36,439.8
	c18.61,9.16,40.19,23.24,56.47,44c29.05,37.05,42.8,78.21,48.79,101.93l84.2-146.01L439.36,439.8z"/>
<path class="st0" d="M337.99,611.86c-0.82,0-1.65-0.14-2.47-0.42c-3.91-1.37-5.97-5.64-4.61-9.55l101.11-289.57
	c1.37-3.91,5.64-5.97,9.55-4.61c3.91,1.37,5.97,5.64,4.61,9.55L345.07,606.83C343.99,609.93,341.09,611.86,337.99,611.86z"/>
<g>
	<path class="st0" d="M499.66,322.39H439.3c-4.14,0-7.5-3.36-7.5-7.5s3.36-7.5,7.5-7.5h60.35c4.14,0,7.5,3.36,7.5,7.5
		S503.8,322.39,499.66,322.39z"/>
</g>
<g>
	<path class="st0" d="M642.28,440.2c-4.14,0-7.5-3.36-7.5-7.5v-37.39c0-4.14,3.36-7.5,7.5-7.5s7.5,3.36,7.5,7.5v37.39
		C649.78,436.84,646.43,440.2,642.28,440.2z"/>
</g>
<path class="st0" d="M672.03,402.75h-60.35c-4.14,0-7.5-3.36-7.5-7.5s3.36-7.5,7.5-7.5h60.35c4.14,0,7.5,3.36,7.5,7.5
	S676.18,402.75,672.03,402.75z"/>
</svg>
