<svg xmlns="http://www.w3.org/2000/svg" viewBox="0 0 41.77 36.4"><defs><style>.cls-1{fill:#fff;}</style></defs><title>WebIkeAsset 14</title><g id="Layer_2" data-name="Layer 2"><g id="Layer_1-2" data-name="Layer 1"><g id="Jjy1qQ"><path class="cls-1" d="M26.71,36.4a6.64,6.64,0,0,1-2.26-.58,13.34,13.34,0,0,0-5.07-1A14.13,14.13,0,0,0,14,35.9a6.64,6.64,0,0,1-2.51.5,6.15,6.15,0,0,1-6-4.71,5.45,5.45,0,0,1,.52-4.39l.64-1c1.53-2.49,3.11-5.06,4.87-7.45a9,9,0,0,1,7.64-3.75l.7,0a9.69,9.69,0,0,1,8,4.73l4.37,6.79a6.22,6.22,0,0,1-.75,8,6.54,6.54,0,0,1-4.72,1.76Zm-7.33-3.51a14.77,14.77,0,0,1,5.83,1.21,4.93,4.93,0,0,0,1.94.42,4.23,4.23,0,0,0,1.74-.38,4.34,4.34,0,0,0,1.82-6.41c-.7-1.07-1.38-2.15-2.06-3.23-.79-1.25-1.58-2.5-2.39-3.74a8.13,8.13,0,0,0-12.13-1.92,7.94,7.94,0,0,0-1.44,1.59l-.11.17c-1.6,2.44-3.26,5-4.8,7.53a4,4,0,0,0-.4,3.24,4.39,4.39,0,0,0,2.26,2.69,4.19,4.19,0,0,0,1.87.45A5.2,5.2,0,0,0,13.59,34,14.49,14.49,0,0,1,17.83,33,15.39,15.39,0,0,1,19.38,32.89Z"/><path class="cls-1" d="M26.71,36.2a6.45,6.45,0,0,1-2.18-.57,13.55,13.55,0,0,0-5.15-1A14.34,14.34,0,0,0,14,35.71a6.43,6.43,0,0,1-2.44.49,6,6,0,0,1-5.78-4.56,5.26,5.26,0,0,1,.5-4.23l.64-1C8.4,23.88,10,21.3,11.73,18.93a8.81,8.81,0,0,1,7.48-3.67l.69,0a9.5,9.5,0,0,1,7.8,4.64l2.56,4,1.82,2.82a6,6,0,0,1-.73,7.79,6.34,6.34,0,0,1-4.57,1.7Zm-7.33-3.11a14.59,14.59,0,0,1,5.75,1.19,5.13,5.13,0,0,0,2,.44,4.43,4.43,0,0,0,1.82-.4,4.54,4.54,0,0,0,1.91-6.71c-.7-1.07-1.38-2.15-2.06-3.23-.79-1.25-1.58-2.5-2.39-3.74A8.33,8.33,0,0,0,14,18.7a8.16,8.16,0,0,0-1.48,1.63l-.11.17c-1.61,2.45-3.27,5-4.8,7.54a4.22,4.22,0,0,0-.42,3.4,4.59,4.59,0,0,0,2.36,2.82,4.4,4.4,0,0,0,2,.47,5.4,5.4,0,0,0,2.16-.48,14.26,14.26,0,0,1,4.18-1.07A15.25,15.25,0,0,1,19.38,33.09Z"/><path class="cls-1" d="M16.26,13.57a5.63,5.63,0,0,1-3.87-1.62A7.09,7.09,0,0,1,10.3,6.53a7.11,7.11,0,0,1,2.46-5.26A5.38,5.38,0,0,1,16.23,0a5.5,5.5,0,0,1,4.22,2,7.45,7.45,0,0,1,1.7,4.92,6.86,6.86,0,0,1-2.69,5.51A5.2,5.2,0,0,1,16.26,13.57Zm0-11.69a3.48,3.48,0,0,0-2.44,1,5.58,5.58,0,0,0-.45,7.31,3.73,3.73,0,0,0,2.88,1.48,3.31,3.31,0,0,0,1.67-.46,4.72,4.72,0,0,0,2.37-4,5.52,5.52,0,0,0-1.66-4.38A3.49,3.49,0,0,0,16.21,1.88Z"/><path class="cls-1" d="M16.26,13.37a5.43,5.43,0,0,1-3.73-1.57,6.9,6.9,0,0,1-2-5.27,6.9,6.9,0,0,1,2.39-5.12A5.18,5.18,0,0,1,16.23.2a5.3,5.3,0,0,1,4.07,2A7.26,7.26,0,0,1,21.94,7a6.67,6.67,0,0,1-2.61,5.35A5,5,0,0,1,16.26,13.37Zm0-11.69a3.68,3.68,0,0,0-2.58,1.06,5.78,5.78,0,0,0-.46,7.58,3.93,3.93,0,0,0,3,1.56h0A3.51,3.51,0,0,0,18,11.4a4.92,4.92,0,0,0,2.47-4.19,5.71,5.71,0,0,0-1.73-4.54A3.69,3.69,0,0,0,16.21,1.68Z"/><path class="cls-1" d="M28.57,15.58a4.9,4.9,0,0,1-4.32-2.67,6.55,6.55,0,0,1-.33-5.28,6.54,6.54,0,0,1,3.55-3.91,5,5,0,0,1,2-.4,4.89,4.89,0,0,1,4.44,2.83,6.51,6.51,0,0,1,.63,3.33,6.42,6.42,0,0,1-3.89,5.63A4.84,4.84,0,0,1,28.57,15.58Zm.88-10.37a3,3,0,0,0-1.31.3c-1.7.81-2.61,2.29-2.77,4.55l.06.39a6.37,6.37,0,0,0,.19.91,3.09,3.09,0,0,0,2.94,2.31,3.45,3.45,0,0,0,1.54-.38,4.6,4.6,0,0,0,2.25-2.69,4.81,4.81,0,0,0-.21-3.66A3,3,0,0,0,29.45,5.21Z"/><path class="cls-1" d="M28.57,15.38a4.7,4.7,0,0,1-4.14-2.57,6.35,6.35,0,0,1-.32-5.12,6.34,6.34,0,0,1,3.44-3.79,4.79,4.79,0,0,1,1.88-.38,4.7,4.7,0,0,1,4.26,2.72,6.34,6.34,0,0,1,.61,3.25,6.24,6.24,0,0,1-3.78,5.45A4.64,4.64,0,0,1,28.57,15.38ZM29.45,5a3.23,3.23,0,0,0-1.39.32c-1.77.84-2.72,2.38-2.88,4.71v.06l.06.37a6.49,6.49,0,0,0,.2.94,3.28,3.28,0,0,0,3.13,2.45h0a3.64,3.64,0,0,0,1.63-.4,4.8,4.8,0,0,0,2.35-2.8,5,5,0,0,0-.22-3.82A3.23,3.23,0,0,0,29.45,5Z"/><path class="cls-1" d="M5.68,19.5A5.19,5.19,0,0,1,3.45,19a6.21,6.21,0,0,1-3.25-4A5.82,5.82,0,0,1,1,10.08,4.33,4.33,0,0,1,4.55,8.17a5.88,5.88,0,0,1,5.53,4.7,5.43,5.43,0,0,1-1.22,5.19A4.25,4.25,0,0,1,5.68,19.5Zm-1-9.44a2.68,2.68,0,0,0-2.44,1.59,4.44,4.44,0,0,0,.88,4.79A3.33,3.33,0,0,0,5.3,17.59,2.75,2.75,0,0,0,8,16a4.38,4.38,0,0,0-2.22-5.75A2.75,2.75,0,0,0,4.7,10.06Z"/><path class="cls-1" d="M5.68,19.3a5,5,0,0,1-2.14-.51A6,6,0,0,1,.4,14.89a5.62,5.62,0,0,1,.78-4.69A4.14,4.14,0,0,1,4.56,8.37a5.69,5.69,0,0,1,5.33,4.55,5.24,5.24,0,0,1-1.17,5A4.05,4.05,0,0,1,5.68,19.3Zm-1-9.44a2.88,2.88,0,0,0-2.62,1.71,4.65,4.65,0,0,0,.91,5,3.53,3.53,0,0,0,2.3,1.2h0a3,3,0,0,0,2.88-1.67,4.58,4.58,0,0,0-2.33-6A3,3,0,0,0,4.7,9.86Z"/><path class="cls-1" d="M35.89,25.13a4.69,4.69,0,0,1-3.39-1.35,4.83,4.83,0,0,1-1.31-3.52,6.24,6.24,0,0,1,5.22-6.06,5.24,5.24,0,0,1,.75-.06,4.58,4.58,0,0,1,4.56,4.13,6.1,6.1,0,0,1-1.44,4.62,5.79,5.79,0,0,1-4,2.22ZM37.16,16a3.48,3.48,0,0,0-1.14.2,4.47,4.47,0,0,0-3,4.19,2.77,2.77,0,0,0,2.77,2.85,4,4,0,0,0,2.94-1.47,4.18,4.18,0,0,0,1.09-3.21A2.7,2.7,0,0,0,37.16,16Z"/><path class="cls-1" d="M35.89,24.92a4.49,4.49,0,0,1-3.25-1.29,4.63,4.63,0,0,1-1.25-3.38,6,6,0,0,1,5-5.87,5,5,0,0,1,.72-.05,4.39,4.39,0,0,1,4.36,4,5.9,5.9,0,0,1-1.39,4.47,5.6,5.6,0,0,1-3.88,2.15Zm1.27-9.11A3.68,3.68,0,0,0,36,16a4.67,4.67,0,0,0-3.1,4.38,3,3,0,0,0,3,3h0a4.18,4.18,0,0,0,3.09-1.54A4.38,4.38,0,0,0,40,18.54,2.89,2.89,0,0,0,37.16,15.82Z"/></g></g></g></svg>