<svg xmlns="http://www.w3.org/2000/svg" viewBox="0 0 63.63 35.6"><defs><style>.cls-1{fill:#fff;}</style></defs><title>WebIkeAsset 16</title><g id="Layer_2" data-name="Layer 2"><g id="Layer_1-2" data-name="Layer 1"><path class="cls-1" d="M13.54,35.6A13.59,13.59,0,0,1,.65,18,13.62,13.62,0,0,1,13.48,8.66a13.87,13.87,0,0,1,6.34,1.57l.16.08.64-1c.6-.91,1.2-1.83,1.78-2.76a1,1,0,0,0,0-.83c-.5-1-1.09-2.21-1.74-3.37a1.23,1.23,0,0,0-.85-.51,4.51,4.51,0,0,0-.57,0H18.3c-.7,0-1.12-.37-1.12-.92S17.6,0,18.29,0h6.79c.68,0,1.11.35,1.11.91s-.43.9-1.12.92H22.44l.53,1c.37.72.72,1.4,1.09,2.06a.87.87,0,0,0,.68.38H39.88a.55.55,0,0,0,.22-.06l.33-.12L38.69,1.77c-.3-.58-.36-1-.19-1.33S39.31,0,39.76,0h6.43a3.15,3.15,0,0,1,3.14,2,3,3,0,0,1-.21,2.61,3.07,3.07,0,0,1-2.23,1.51,6.1,6.1,0,0,1-.88.06,6.12,6.12,0,0,1-.71,0c-.56-.07-.85-.36-.86-.87s.25-.8.83-.89a5.12,5.12,0,0,1,.67,0c.2,0,.4,0,.6,0A1.21,1.21,0,0,0,47.73,3a1.17,1.17,0,0,0-1.22-1.16H40.77l4.06,7.91L45,9.7a15.28,15.28,0,0,1,5.34-1,13.2,13.2,0,0,1,7.25,2.23A13,13,0,0,1,63,18.18a13.44,13.44,0,0,1-6.69,15.89,13.83,13.83,0,0,1-6.21,1.49h0a13.34,13.34,0,0,1-10.88-5.68A12.94,12.94,0,0,1,37,19.46a13.42,13.42,0,0,1,6.05-8.75l.14-.1L42,8.12l-.37.52L41.35,9l-2.26,3.5Q36.34,16.76,33.57,21a10.92,10.92,0,0,0-1.52,3.27c-.18.66-.38,1.31-.6,2l-.36,1.16.63.05.65.06a.82.82,0,0,1,.78.87.73.73,0,0,1-.7.82c-.74,0-1.49,0-2.23,0s-1.4,0-2.1,0a.72.72,0,0,1-.68-.83c0-.41.2-.84.7-.84h.16c.92,0,1.11-.67,1.26-1.22.2-.71.41-1.41.63-2.12L30.54,23H26.92l0,.17a13.44,13.44,0,0,1-7.46,10.91A12.85,12.85,0,0,1,13.54,35.6ZM43.93,12.39A11.55,11.55,0,0,0,40,27.73a11.76,11.76,0,0,0,10.25,6.05,11.35,11.35,0,0,0,5.65-1.5A11.8,11.8,0,0,0,61.46,25a11.29,11.29,0,0,0-1.12-8.65,11.64,11.64,0,0,0-10.13-5.92,10.18,10.18,0,0,0-4.31.92l-.19.09.44.88,4.68,9.08c.48.93.09,1.27-.25,1.46a.93.93,0,0,1-.44.13c-.32,0-.62-.25-.88-.75l-1.54-3-3.62-7ZM13.47,10.48a11.64,11.64,0,1,0,0,23.28,11.84,11.84,0,0,0,2.89-.36A11.59,11.59,0,0,0,25,23.24V23H13.65a1.06,1.06,0,0,1-1-.44,1.08,1.08,0,0,1,.08-1.06c.08-.15.18-.3.27-.44L19,12l-.18-.11A10.51,10.51,0,0,0,13.47,10.48Zm8.13.68.78.84c.48.51.94,1,1.38,1.52a13.43,13.43,0,0,1,3,6.92c0,.27.33.71.62.73s.75,0,1.14,0h1.72L23.6,8.08Zm-6.46,10h9.93l0-.22A11.65,11.65,0,0,0,20.69,13l-.17-.14Zm16.73-.81L40.35,7.19H25.16Z"/></g></g></svg>