<svg xmlns="http://www.w3.org/2000/svg" viewBox="0 0 42.95 42.6"><defs><style>.cls-1{fill:#fff;}</style></defs><title>WebIkeAsset 17</title><g id="Layer_2" data-name="Layer 2"><g id="Layer_1-2" data-name="Layer 1"><path class="cls-1" d="M37.76,42.6a1.06,1.06,0,0,1-.73-.36q-2.75-2.73-5.48-5.49a1.79,1.79,0,0,1-.3-.51l-.08-.17a2.42,2.42,0,0,1-.2-.52A7.44,7.44,0,0,0,28.7,32c-2-1.93-4-3.94-5.93-5.89l-2.39-2.4-.18-.17L20,23.33l-1.53,1.59a1,1,0,0,1-.73.37.9.9,0,0,1-.38-.09.74.74,0,0,1-.49-.78.88.88,0,0,0-.35-.82l-5.34-5.34Q6.48,13.56,1.79,8.88A4.8,4.8,0,0,1,.25,4.43,4.56,4.56,0,0,1,3.47.7,5.24,5.24,0,0,1,5.11.42,4.48,4.48,0,0,1,8.32,1.8c2,1.92,3.9,3.86,5.84,5.81l3.94,3.95q2.64,2.64,5.29,5.28a1,1,0,0,0,.63.27.91.91,0,0,1,.9.51.85.85,0,0,1-.2,1c-.3.32-.61.62-.92.93l-.47.47-.11.13-.24.28.26.15a1.3,1.3,0,0,1,.31.2l3.54,3.53,5.74,5.72a3.21,3.21,0,0,0,.73.49l.24.13a1.64,1.64,0,0,0,.48.18,7.11,7.11,0,0,1,3.64,2.35c.88,1,1.82,1.88,2.73,2.77l1.21,1.19c.63.63.64,1.06,0,1.68q-1.68,1.69-3.37,3.37A1.08,1.08,0,0,1,37.76,42.6ZM21.26,22.15l.22.17a1.64,1.64,0,0,1,.2.16L24.15,25C26,26.89,28,28.87,30,30.77A9,9,0,0,1,32.68,35a2.12,2.12,0,0,0,.55.87c.48.51,1,1,1.48,1.5l.86.86L37,39.8l.65.67L40.18,38l-.93-.93-3.83-3.81A1.25,1.25,0,0,0,35,33l-.73-.26c-.45-.16-.9-.31-1.34-.5a3.2,3.2,0,0,1-1-.63q-4.82-4.78-9.61-9.6a1.12,1.12,0,0,1-.18-.29l-.1-.2-.07-.11ZM5,2.2A3,3,0,0,0,2.21,4a3.15,3.15,0,0,0,.86,3.65L17.4,22a5,5,0,0,1,.39.46l.23.29,4.37-4.37-.28-.3L10.19,6.14l-.84-.85C8.58,4.51,7.79,3.71,7,3A2.94,2.94,0,0,0,5,2.2Z"/><path class="cls-1" d="M26.6,21.84a.91.91,0,0,1-.44-.12.77.77,0,0,1-.41-.91,1.31,1.31,0,0,1,.33-.57l1.49-1.5,1.26-1.26a1,1,0,0,1,.78-.32,2.4,2.4,0,0,1,.42,0l.73.14a11.36,11.36,0,0,0,2.2.29h.16a8.4,8.4,0,0,0,8-7.48A8.46,8.46,0,0,0,38.64,3l-.18-.17,0,0-.09,0h-.11l-.08.1V4.56c0,1.44,0,2.86,0,4.28a1.33,1.33,0,0,1-.66,1.24c-.94.63-1.87,1.27-2.8,1.92l-1.37.95a1.28,1.28,0,0,1-.7.3A1.23,1.23,0,0,1,32,13l-1.75-1.21L27.64,10a1.12,1.12,0,0,1-.5-1c0-1.36,0-2.73,0-4.09V2.57L27,2.71a8.11,8.11,0,0,0-2.18,3,8.31,8.31,0,0,0,0,6.67c.33.8.3,1-.31,1.6l-.09.09a6.55,6.55,0,0,1-.5.47.93.93,0,0,1-.59.22.83.83,0,0,1-.56-.22.92.92,0,0,1-.3-.65.68.68,0,0,1,.2-.51,1,1,0,0,0,.18-1.25A10.31,10.31,0,0,1,27.43.19,1.3,1.3,0,0,1,28.05,0c.51,0,.84.41.85,1q0,3.56,0,7.13a.86.86,0,0,0,.42.83c1,.66,2,1.35,3,2a.61.61,0,0,0,.36.14.6.6,0,0,0,.35-.13l1.3-.9c.61-.42,1.22-.84,1.82-1.28a.87.87,0,0,0,.28-.64c0-2.34,0-4.69,0-7,0-.45,0-.85.45-1.09A.83.83,0,0,1,37.27,0,1.44,1.44,0,0,1,38,.28,10,10,0,0,1,42.94,9.6a9.84,9.84,0,0,1-5.79,8.79,9.35,9.35,0,0,1-4.25,1.06,9,9,0,0,1-2.41-.33,1.39,1.39,0,0,0-.37-.06,1,1,0,0,0-.77.38c-.63.68-1.3,1.33-2,2l-.15.15A.91.91,0,0,1,26.6,21.84Z"/><path class="cls-1" d="M4.48,42.36A4.45,4.45,0,0,1,.62,40.08,4.64,4.64,0,0,1,0,37.82,4.54,4.54,0,0,1,1.33,34.6l.14-.14q5.65-5.66,11.31-11.3a1.49,1.49,0,0,1,.91-.44,1.1,1.1,0,0,1,.72.53.84.84,0,0,1-.26,1L9.4,29Q6,32.37,2.7,35.72a3,3,0,0,0-.89,2.59,2.73,2.73,0,0,0,1.55,2,2.87,2.87,0,0,0,1.25.31,2.56,2.56,0,0,0,1.73-.7c.64-.57,1.25-1.19,1.84-1.79l.6-.61,11-11a3.45,3.45,0,0,1,.49-.43A.8.8,0,0,1,20.7,26a.86.86,0,0,1,.58.23.81.81,0,0,1,.16,1.06,2.66,2.66,0,0,1-.39.46l-1.92,1.92L8,40.85A4.92,4.92,0,0,1,4.48,42.36Z"/><path class="cls-1" d="M4.54,38.93a1.07,1.07,0,0,1-.77-.32,1.12,1.12,0,0,1-.32-.81,1.09,1.09,0,1,1,2.18,0,1.1,1.1,0,0,1-1.08,1.1Z"/><path class="cls-1" d="M18.45,19.59a.79.79,0,0,1-.48-.16,6.73,6.73,0,0,1-.69-.63L4.61,6.13a2.26,2.26,0,0,1-.38-.46.82.82,0,0,1,0-.82,1,1,0,0,1,.9-.47l.14.08a2.65,2.65,0,0,1,.51.37Q8.7,7.71,11.6,10.62l7.13,7.13a3.29,3.29,0,0,1,.45.53.86.86,0,0,1-.73,1.31Z"/></g></g></svg>