<svg xmlns="http://www.w3.org/2000/svg" viewBox="0 0 46.4 37.52"><defs><style>.cls-1{fill:#fff;}</style></defs><title>WebIkeAsset 15</title><g id="Layer_2" data-name="Layer 2"><g id="Layer_1-2" data-name="Layer 1"><g id="iD08BR"><path class="cls-1" d="M16.55,37.51a1.52,1.52,0,0,1-1.09-.4,1.17,1.17,0,0,1-.33-.86A1.27,1.27,0,0,1,16.52,35H21.9V32.55H4A3.65,3.65,0,0,1,.42,30.47,4.21,4.21,0,0,1,0,28.7C0,21.28,0,13.37,0,3.81A3.67,3.67,0,0,1,3.95,0H42.42a3.74,3.74,0,0,1,4,4q0,12.29,0,24.57a3.74,3.74,0,0,1-4,4H24.49V35h5.25a1.52,1.52,0,0,1,1.1.43,1.13,1.13,0,0,1,.33.83,1.31,1.31,0,0,1-1.41,1.24H16.55ZM4.07,2.5c-1.17,0-1.56.4-1.56,1.57V28.43c0,1.21.39,1.59,1.6,1.59H42.31c1.2,0,1.59-.39,1.59-1.6V4.12c0-1.24-.38-1.62-1.62-1.62H4.07Z"/></g></g></g></svg>