<svg xmlns="http://www.w3.org/2000/svg" viewBox="0 0 41 41"><defs><style>.cls-1{fill:#fff;}</style></defs><title>WebIkeAsset 13</title><g id="Layer_2" data-name="Layer 2"><g id="Layer_1-2" data-name="Layer 1"><g id="Uc62I1"><path class="cls-1" d="M20.35,41a7.09,7.09,0,0,1-.72-.33,2.27,2.27,0,0,1-.44-.4L.69,21.78a1.54,1.54,0,0,1,0-2.58L19.2.71c1-1,1.65-.95,2.61,0L40.27,19.18c1,1,1,1.66,0,2.64L21.73,40.35A1.93,1.93,0,0,1,20.35,41Zm.14-2.49,18-18-18-18-18,18Z"/><path class="cls-1" d="M16.39,27.75a.76.76,0,0,1-.6-.28,1.41,1.41,0,0,1-.35-.79c0-2.2-.06-4.8,0-7.44a3.56,3.56,0,0,1,3.65-3.53H22.8l1.2-.06L23.32,15l-.39-.37-.7-.67a1,1,0,0,1-.08-1.51,1,1,0,0,1,.68-.3,1.2,1.2,0,0,1,.83.38l.18.18L27,15.84a1.05,1.05,0,0,1,0,1.74L24.58,20l-.93.93a1.09,1.09,0,0,1-.77.38,1,1,0,0,1-.32-.05,1,1,0,0,1-.7-.8,1,1,0,0,1,.34-.94l.7-.72.93-.94L23,17.78l-.13,0-.26,0H19.19a1.59,1.59,0,0,0-1.74,1.75q0,3.59,0,7.18a1,1,0,0,1-.65,1A1.07,1.07,0,0,1,16.39,27.75Z"/></g></g></g></svg>