<svg xmlns="http://www.w3.org/2000/svg" viewBox="0 0 29.49 27"><defs><style>.cls-1{fill:#fff;}</style></defs><title>WebIkeAsset 9</title><g id="Layer_2" data-name="Layer 2"><g id="Cart"><g id="pdr650"><path class="cls-1" d="M17.11,18.06H8.78c-.86,0-1.17-.23-1.37-1.06Q6,11.28,4.68,5.57c-.24-1-.5-2-.73-3.07a.32.32,0,0,0-.38-.3c-.84,0-1.69,0-2.53,0a1.07,1.07,0,0,1-1-.91A1.1,1.1,0,0,1,.66.11,1.46,1.46,0,0,1,1.2,0H4.66A1.1,1.1,0,0,1,5.83.93c.3,1.22.6,2.45.87,3.68.07.3.17.4.49.4H28.4a1.09,1.09,0,0,1,1.05,1.38c-.49,2-1,4-1.49,6.07L26.85,17a1.18,1.18,0,0,1-1.39,1.09ZM7.37,7.24a1.54,1.54,0,0,0,0,.19c.64,2.67,1.29,5.35,1.91,8,.07.31.18.41.51.41q7.3,0,14.61,0c.32,0,.45-.08.53-.4.48-2,1-4,1.49-6.07L27,7.24Z"/><path class="cls-1" d="M10,19.65a3.68,3.68,0,1,1-3.67,3.7A3.68,3.68,0,0,1,10,19.65ZM8.54,23.32A1.46,1.46,0,1,0,10,21.86,1.46,1.46,0,0,0,8.54,23.32Z"/><path class="cls-1" d="M27,23.37a3.67,3.67,0,1,1-3.64-3.72A3.67,3.67,0,0,1,27,23.37Zm-3.66-1.51a1.46,1.46,0,1,0,1.46,1.47A1.46,1.46,0,0,0,23.36,21.86Z"/></g></g></g></svg>