<svg xmlns="http://www.w3.org/2000/svg" viewBox="0 0 155.64 123.83"><defs><style>.cls-1{fill:#fff;}.cls-2{fill:#ff6c0c;}</style></defs><title>WebIkeAsset 19</title><g id="Layer_2" data-name="Layer 2"><g id="Layer_1-2" data-name="Layer 1"><path class="cls-1" d="M79.09,2.91a59,59,0,1,1-59,59,59,59,0,0,1,59-59m0-2.91A61.91,61.91,0,1,0,141,61.91,62,62,0,0,0,79.09,0Z"/><path class="cls-1" d="M79.09,22.44A39.47,39.47,0,1,1,39.62,61.91,39.51,39.51,0,0,1,79.09,22.44m0-1.94a41.41,41.41,0,1,0,41.41,41.41A41.41,41.41,0,0,0,79.09,20.5Z"/><polygon class="cls-2" points="155.64 61.71 8.26 96.79 0 62.56 147.63 27.72 155.64 61.71"/><path class="cls-1" d="M25.54,81.08a10.83,10.83,0,0,1-2.46,1.61,14,14,0,0,1-2.78,1,8.37,8.37,0,0,1-3,.19A6.72,6.72,0,0,1,14.74,83a6.48,6.48,0,0,1-2-1.84,8.25,8.25,0,0,1-1.36-5.75,6.48,6.48,0,0,1,1-2.54,6.72,6.72,0,0,1,1.93-1.93A8.37,8.37,0,0,1,17,69.78a10.87,10.87,0,0,1,3-.31,5.88,5.88,0,0,1,2.65.76L21.15,73a4.21,4.21,0,0,0-1.57-.61,4.92,4.92,0,0,0-1.94.13,4.45,4.45,0,0,0-1.61.72,3.9,3.9,0,0,0-1.09,1.19,4,4,0,0,0-.51,1.55,5.3,5.3,0,0,0,.81,3.41,4,4,0,0,0,1.15,1.15,3.89,3.89,0,0,0,1.51.58A4.44,4.44,0,0,0,19.66,81a5.72,5.72,0,0,0,1.59-.6,6.37,6.37,0,0,0,1-.7l-.51-2.15-2.37.56-.64-2.69,5.17-1.23Z"/><path class="cls-1" d="M29.16,67.25l2.41-.57,8.88,11.85-3.28.78-1.8-2.53L30.23,78l-.44,3.06-3.21.76Zm2,3.58-.63,4.49,3.23-.77Z"/><path class="cls-1" d="M38.27,65.09l5.11-1.21a9.26,9.26,0,0,1,2-.26,4.67,4.67,0,0,1,1.74.28,3.35,3.35,0,0,1,1.37,1,4.29,4.29,0,0,1,.86,1.84,4,4,0,0,1-.16,2.55A3.37,3.37,0,0,1,47.32,71L52,75.79l-3.49.83L44.5,72l-1.44.34,1.25,5.28-2.91.69Zm4.21,4.78,1.72-.41.82-.23a2.68,2.68,0,0,0,.75-.36,1.41,1.41,0,0,0,.48-.58,1.37,1.37,0,0,0,0-.9,1.44,1.44,0,0,0-.4-.75,1.41,1.41,0,0,0-.63-.33,2.39,2.39,0,0,0-.78,0,6.06,6.06,0,0,0-.82.13l-1.9.45Z"/><path class="cls-1" d="M54.34,61.28l2.41-.57,8.88,11.85-3.28.78-1.8-2.53L55.41,72,55,75.08l-3.21.76Zm2,3.58-.63,4.49L59,68.58Z"/><path class="cls-1" d="M63.45,59.12l4-.94L75.2,66h0l-2.18-9.18L76,56.15l3.13,13.21-3.81.9-8-8h0l2.23,9.41-2.91.69Z"/><path class="cls-1" d="M81.46,57.57l-3.77.89-.61-2.58,10.45-2.48L88.14,56l-3.77.89,2.52,10.64L84,68.2Z"/><path class="cls-1" d="M88.59,53.15l2.91-.69,3.13,13.21-2.91.69Z"/><path class="cls-1" d="M95.59,62.61l4.81-9.54L93.94,54.6,93.33,52l10-2.37.61,2.58-4.68,9.51L106,60.13l.64,2.69L96.22,65.3Z"/><path class="cls-1" d="M109.51,48.19l2.41-.57,8.88,11.85-3.28.78-1.8-2.53-5.13,1.22L110.14,62l-3.21.76Zm2,3.58-.63,4.49,3.23-.77Z"/><path class="cls-1" d="M118.62,46,123,45a12.83,12.83,0,0,1,3.1-.36,7.08,7.08,0,0,1,2.76.56A5.78,5.78,0,0,1,131,46.85a7.11,7.11,0,0,1,1.36,2.93,6.46,6.46,0,0,1,.06,3,6.25,6.25,0,0,1-1.15,2.44A7.42,7.42,0,0,1,129.23,57a9.46,9.46,0,0,1-2.72,1.1l-4.76,1.13ZM124,55.87l1.51-.36a8.34,8.34,0,0,0,1.83-.65,4.12,4.12,0,0,0,1.34-1,3.36,3.36,0,0,0,.7-1.49,4.56,4.56,0,0,0-.09-2,3.8,3.8,0,0,0-.76-1.6,3.47,3.47,0,0,0-1.26-1,4.42,4.42,0,0,0-1.61-.36,6.61,6.61,0,0,0-1.8.18l-1.72.41Z"/><path class="cls-1" d="M136.76,41.73l2.41-.57L148,53l-3.28.78L143,51.26l-5.13,1.22-.44,3.06-3.21.76Zm2,3.58-.63,4.49,3.23-.77Z"/><path class="cls-1" d="M63,91.29l1.25-.3,1.45,2.23h0L66,90.56l1.24-.3L68.11,94l-.82.2-.7-2.87h0l-.29,3.11-.63.15L64,92h0l.7,2.87-.82.2Z"/><path class="cls-1" d="M69.09,89.8l.68-.17L72.31,93l-.93.23-.51-.71-1.45.35-.12.87-.91.22Zm.58,1-.17,1.27.91-.22Z"/><path class="cls-1" d="M73,90.73l-1.67-1.49,1-.25,1.12,1.12.45-1.5,1-.24-.78,2.06L76,92.08l-1,.25L73.7,91l-.52,1.72-1,.24Z"/><path class="cls-1" d="M82.7,90.21l-.4.19a2.76,2.76,0,0,1-.43.14,4.08,4.08,0,0,1-1.69.07,3.83,3.83,0,0,1-1.45-.57,4,4,0,0,1-1.11-1.11,4.64,4.64,0,0,1-.67-1.53,4.2,4.2,0,0,1,.6-3.44,4.59,4.59,0,0,1,1.26-1.23,5.76,5.76,0,0,1,3.67-.89,4.58,4.58,0,0,1,1.7.51,4.2,4.2,0,0,1,2.11,2.79,5.85,5.85,0,0,1,.17,1.26,6.66,6.66,0,0,1-.07,1.13,7,7,0,0,1-.25,1.06l-.35,1.07-1.7,4.95-3.24.79Zm-3.08-3.34a2,2,0,0,0,.9,1.27,2.25,2.25,0,0,0,2.92-.71,2.11,2.11,0,0,0-.68-2.81,2.25,2.25,0,0,0-2.92.71A2,2,0,0,0,79.63,86.87Z"/><path class="cls-1" d="M87.22,87.22a13.36,13.36,0,0,1-.35-2.31,6.82,6.82,0,0,1,.22-2.26,4.45,4.45,0,0,1,1.05-1.88,4.9,4.9,0,0,1,4.6-1.12,4.45,4.45,0,0,1,1.8,1.18,6.84,6.84,0,0,1,1.23,1.91,13.08,13.08,0,0,1,1.1,4.53,6.83,6.83,0,0,1-.22,2.26,4.45,4.45,0,0,1-1.05,1.88A4.9,4.9,0,0,1,91,92.53a4.44,4.44,0,0,1-1.8-1.18A6.82,6.82,0,0,1,88,89.43,13.35,13.35,0,0,1,87.22,87.22Zm2.65-.64q.12.5.33,1.17A6,6,0,0,0,90.77,89a2.9,2.9,0,0,0,.86.94,1.68,1.68,0,0,0,2.24-.54,2.84,2.84,0,0,0,.34-1.23,6,6,0,0,0-.08-1.39q-.12-.7-.24-1.2t-.33-1.17A6,6,0,0,0,93,83.16a2.84,2.84,0,0,0-.86-.93,1.68,1.68,0,0,0-2.24.54A2.9,2.9,0,0,0,89.55,84a5.94,5.94,0,0,0,.08,1.38Q89.76,86.08,89.88,86.57Z"/><path class="cls-1" d="M98.18,82.73l1.25-.3,1.45,2.23h0l.27-2.65,1.24-.3.91,3.74-.82.2-.7-2.87h0l-.29,3.11-.63.15L99.23,83.4h0l.7,2.87-.82.2Z"/><path class="cls-1" d="M103.05,81.54l.82-.2.91,3.74-.82.2Z"/><path class="cls-1" d="M104.52,81.19l1.12-.27,2.22,2.21h0l-.63-2.6.82-.2.91,3.74-1.08.26-2.28-2.27h0l.65,2.66-.82.2Z"/><path class="cls-1" d="M43.39,93.15l.91,1L40.81,97.4l1.68,1.79-.89.84L39,97.27Z"/><path class="cls-1" d="M44.23,98.48a3.41,3.41,0,0,1,1-.85,2.88,2.88,0,0,1,1.16-.33,3,3,0,0,1,1.19.17,3.93,3.93,0,0,1,2,1.67,3,3,0,0,1,.38,1.15,2.87,2.87,0,0,1-.12,1.2,3.66,3.66,0,0,1-1.68,2,2.87,2.87,0,0,1-1.16.33,3,3,0,0,1-1.19-.17,3.93,3.93,0,0,1-2-1.67,3,3,0,0,1-.38-1.15,2.88,2.88,0,0,1,.12-1.2A3.4,3.4,0,0,1,44.23,98.48Zm1.06.88a2.2,2.2,0,0,0-.4.68,1.78,1.78,0,0,0-.1.71,1.73,1.73,0,0,0,.19.69,2.12,2.12,0,0,0,1.18,1,1.73,1.73,0,0,0,.71.07,1.78,1.78,0,0,0,.68-.23,2.35,2.35,0,0,0,1-1.19,1.78,1.78,0,0,0,.11-.72,1.73,1.73,0,0,0-.19-.69,2.12,2.12,0,0,0-1.18-1,1.73,1.73,0,0,0-.71-.07,1.77,1.77,0,0,0-.69.23A2.22,2.22,0,0,0,45.29,99.36Z"/><path class="cls-1" d="M54.25,104.14a1.3,1.3,0,0,0-.21-.57,1.59,1.59,0,0,0-.49-.46,1.65,1.65,0,0,0-1.35-.2,1.88,1.88,0,0,0-.64.32,2.35,2.35,0,0,0-.83,1.31,1.93,1.93,0,0,0,0,.71,1.63,1.63,0,0,0,.24.63,1.56,1.56,0,0,0,.49.48,1.5,1.5,0,0,0,.7.24,1.44,1.44,0,0,0,.69-.12l.49,1.29a2.3,2.3,0,0,1-1.24.15,3,3,0,0,1-1.16-.43,3.7,3.7,0,0,1-1-.88,3,3,0,0,1-.53-1.09,2.87,2.87,0,0,1,0-1.2,3.66,3.66,0,0,1,1.4-2.21,2.87,2.87,0,0,1,1.11-.48,3,3,0,0,1,1.21,0,3.7,3.7,0,0,1,1.22.51,3.16,3.16,0,0,1,.42.32,2.86,2.86,0,0,1,.38.42,2.42,2.42,0,0,1,.29.51,2,2,0,0,1,.15.59Z"/><path class="cls-1" d="M58.39,104.56l1,.47-.2,6.56-1.35-.64.08-1.37-2.11-1-1,.94-1.32-.62Zm-.29,1.8-1.46,1.38,1.33.63Z"/><path class="cls-1" d="M62.35,106.29l1.26.43-1.54,4.54,2.33.79L64,113.21,60.41,112Z"/><path class="cls-1" d="M66.84,107.72l1.29.33-1.48,5.83-1.28-.33Z"/><path class="cls-1" d="M69.37,108.39l2,.3a5.67,5.67,0,0,1,1.33.37,3.14,3.14,0,0,1,1,.69,2.56,2.56,0,0,1,.62,1,3.15,3.15,0,0,1,.07,1.43,2.86,2.86,0,0,1-.47,1.23,2.77,2.77,0,0,1-.88.81,3.29,3.29,0,0,1-1.15.4,4.19,4.19,0,0,1-1.3,0l-2.14-.33Zm.59,4.94.68.1a3.69,3.69,0,0,0,.86,0,1.82,1.82,0,0,0,.72-.2,1.49,1.49,0,0,0,.54-.49,2,2,0,0,0,.29-.83,1.68,1.68,0,0,0,0-.79,1.54,1.54,0,0,0-.36-.6,2,2,0,0,0-.6-.41,2.94,2.94,0,0,0-.77-.23l-.77-.12Z"/><path class="cls-1" d="M77.55,109.31l1.1,0,2.5,6.07-1.5,0-.49-1.28-2.34,0-.53,1.26-1.46,0Zm.48,1.76-.77,1.85,1.47,0Z"/><path class="cls-1" d="M81.69,109.32l2-.22a5.68,5.68,0,0,1,1.38,0,3.14,3.14,0,0,1,1.19.39,2.57,2.57,0,0,1,.87.85,3.15,3.15,0,0,1,.44,1.36,2.86,2.86,0,0,1-.13,1.31,2.76,2.76,0,0,1-.63,1,3.29,3.29,0,0,1-1,.69,4.19,4.19,0,0,1-1.25.34l-2.15.24Zm1.85,4.62.68-.08a3.71,3.71,0,0,0,.84-.19,1.82,1.82,0,0,0,.65-.38,1.49,1.49,0,0,0,.39-.62,2,2,0,0,0,.07-.88,1.68,1.68,0,0,0-.25-.75,1.54,1.54,0,0,0-.5-.49,2,2,0,0,0-.69-.24,2.94,2.94,0,0,0-.8,0l-.78.09Z"/><path class="cls-1" d="M88,108.52l4-1,.29,1.19-2.69.64.26,1.09,2.54-.61.29,1.19-2.54.61.29,1.19,2.83-.68.29,1.19-4.12,1Z"/><path class="cls-1" d="M96.45,107.62a1,1,0,0,0-.51-.14,1.57,1.57,0,0,0-.53.08,1.36,1.36,0,0,0-.27.13,1.14,1.14,0,0,0-.24.2.63.63,0,0,0-.15.25.48.48,0,0,0,0,.3.48.48,0,0,0,.33.33,1.94,1.94,0,0,0,.57.06l.7,0a2.75,2.75,0,0,1,.73.05,1.58,1.58,0,0,1,.65.3,1.53,1.53,0,0,1,.47.73,1.93,1.93,0,0,1,.11.89,1.77,1.77,0,0,1-.27.75,2.14,2.14,0,0,1-.58.59,3.39,3.39,0,0,1-1.88.6,2.72,2.72,0,0,1-1.07-.24l.55-1.29a1.37,1.37,0,0,0,.62.23,1.46,1.46,0,0,0,.65-.07,1.44,1.44,0,0,0,.3-.14,1.06,1.06,0,0,0,.24-.21.64.64,0,0,0,.14-.25.49.49,0,0,0,0-.29.51.51,0,0,0-.34-.34,1.92,1.92,0,0,0-.58-.08l-.71,0a3,3,0,0,1-.74-.06,1.63,1.63,0,0,1-.66-.29,1.41,1.41,0,0,1-.46-.69,1.81,1.81,0,0,1-.1-.86,1.85,1.85,0,0,1,.28-.75,2.22,2.22,0,0,1,.57-.59,3,3,0,0,1,.77-.4,3.37,3.37,0,0,1,1-.19,2.28,2.28,0,0,1,1,.17Z"/><path class="cls-1" d="M106.54,105.1a2.91,2.91,0,0,1,.35.94,2.17,2.17,0,0,1,0,.92,2.2,2.2,0,0,1-.44.84,3,3,0,0,1-.86.7,3,3,0,0,1-1.05.38,2.19,2.19,0,0,1-.95-.06,2.17,2.17,0,0,1-.8-.44,2.9,2.9,0,0,1-.63-.78l-1.82-3.21,1.15-.65,1.8,3.17a1.47,1.47,0,0,0,.33.41,1.24,1.24,0,0,0,.42.23,1.14,1.14,0,0,0,.47,0,1.21,1.21,0,0,0,.47-.16,1.19,1.19,0,0,0,.37-.32,1.15,1.15,0,0,0,.2-.43,1.24,1.24,0,0,0,0-.48,1.47,1.47,0,0,0-.18-.49l-1.8-3.17,1.15-.65Z"/><path class="cls-1" d="M105.63,101.27l1.87-1.39a4.1,4.1,0,0,1,.75-.45,2.07,2.07,0,0,1,.76-.19,1.48,1.48,0,0,1,.73.16,1.9,1.9,0,0,1,.67.6,1.77,1.77,0,0,1,.38,1.07,1.49,1.49,0,0,1-.44,1l2.74,1.13-1.28.95L109.37,103l-.53.39,1.43,1.93-1.06.79Zm2.55,1.21.63-.47.3-.24a1.17,1.17,0,0,0,.24-.28.62.62,0,0,0,.1-.32.61.61,0,0,0-.14-.37.64.64,0,0,0-.29-.24.62.62,0,0,0-.32,0,1.06,1.06,0,0,0-.32.12l-.31.2-.7.52Z"/><path class="cls-1" d="M110,98l1.63-1.54a5.66,5.66,0,0,1,.61-.5,2.15,2.15,0,0,1,.67-.33,1.36,1.36,0,0,1,.69,0,1.42,1.42,0,0,1,.68.44,1.26,1.26,0,0,1,.37.81,1.56,1.56,0,0,1-.22.86h0a1.73,1.73,0,0,1,.51-.25,1.44,1.44,0,0,1,.52-.06,1.34,1.34,0,0,1,.5.14,1.57,1.57,0,0,1,.44.33,1.45,1.45,0,0,1,.4.72,1.6,1.6,0,0,1,0,.74,2.3,2.3,0,0,1-.34.7,3.88,3.88,0,0,1-.53.61l-1.8,1.69Zm2.61.84.7-.66a1.36,1.36,0,0,0,.2-.23.84.84,0,0,0,.12-.26.58.58,0,0,0,0-.28.61.61,0,0,0-.16-.27.55.55,0,0,0-.27-.17.56.56,0,0,0-.28,0,1,1,0,0,0-.28.13,1.76,1.76,0,0,0-.25.19l-.66.62Zm1.71,1.81.87-.81a1.45,1.45,0,0,0,.2-.24.82.82,0,0,0,.13-.28.68.68,0,0,0,0-.3.64.64,0,0,0-.17-.3.53.53,0,0,0-.31-.18.67.67,0,0,0-.33,0,1.37,1.37,0,0,0-.32.17l-.27.22-.73.69Z"/><path class="cls-1" d="M115.13,92.72l.7-.84,6.3,1.84-1,1.15-1.31-.42-1.5,1.8.66,1.2-.94,1.12Zm1.67.73,1,1.76.94-1.13Z"/><path class="cls-1" d="M117.72,89.53l1-1.53,4.9.06h0l-3.54-2.22.7-1.12,5.1,3.2-.92,1.47-5-.05h0l3.63,2.28-.7,1.12Z"/><path class="cls-1" d="M122,82l.45-1,6.56.11-.62,1.36-1.37-.06-1,2.13,1,1-.6,1.33Zm1.8.26,1.4,1.44.61-1.34Z"/><path class="cls-1" d="M126,75.69a.94.94,0,0,0-.42.32,1.57,1.57,0,0,0-.25.47,1.37,1.37,0,0,0-.06.29,1.15,1.15,0,0,0,0,.31.63.63,0,0,0,.11.27.53.53,0,0,0,.71.1,1.93,1.93,0,0,0,.39-.41l.4-.57a2.75,2.75,0,0,1,.48-.55,1.58,1.58,0,0,1,.63-.34,1.53,1.53,0,0,1,.86.06,1.93,1.93,0,0,1,.78.45,1.77,1.77,0,0,1,.44.67,2.15,2.15,0,0,1,.12.82,3.39,3.39,0,0,1-.66,1.86,2.72,2.72,0,0,1-.84.71l-.7-1.21a1.37,1.37,0,0,0,.56-.36,1.44,1.44,0,0,0,.4-.89,1.06,1.06,0,0,0,0-.32.64.64,0,0,0-.12-.26.49.49,0,0,0-.24-.16.51.51,0,0,0-.47.07,1.92,1.92,0,0,0-.41.42l-.42.58a3,3,0,0,1-.49.56,1.64,1.64,0,0,1-.63.35,1.41,1.41,0,0,1-.83,0,1.81,1.81,0,0,1-.75-.44,1.85,1.85,0,0,1-.43-.67,2.22,2.22,0,0,1-.13-.81,3,3,0,0,1,.14-.86,3.38,3.38,0,0,1,.44-.89,2.28,2.28,0,0,1,.72-.67Z"/><path class="cls-1" d="M28.2,43.43,28.76,42l9.36-.44-.76,2-2,0-1.19,3.12L35.65,48l-.74,2Zm2.6.21,2.12,1.93.75-2Z"/><path class="cls-1" d="M35,34.21a1.35,1.35,0,0,0-.69.32,2.24,2.24,0,0,0-.5.57,2,2,0,0,0-.17.39,1.64,1.64,0,0,0-.08.43.9.9,0,0,0,.08.41.76.76,0,0,0,1,.36,2.76,2.76,0,0,0,.68-.46l.73-.68a3.93,3.93,0,0,1,.84-.61,2.26,2.26,0,0,1,1-.27A2.18,2.18,0,0,1,39,35a2.76,2.76,0,0,1,.94.86,2.54,2.54,0,0,1,.4,1.07,3.07,3.07,0,0,1-.08,1.18,4.84,4.84,0,0,1-1.5,2.39,3.89,3.89,0,0,1-1.39.74l-.6-1.91A2,2,0,0,0,37.7,39a2.09,2.09,0,0,0,.65-.68,2.07,2.07,0,0,0,.19-.43,1.53,1.53,0,0,0,.07-.45.92.92,0,0,0-.09-.4.7.7,0,0,0-.29-.3.73.73,0,0,0-.68-.05,2.75,2.75,0,0,0-.71.45l-.76.68a4.34,4.34,0,0,1-.86.62,2.34,2.34,0,0,1-1,.29,2,2,0,0,1-1.15-.33,2.58,2.58,0,0,1-.91-.85,2.64,2.64,0,0,1-.39-1.07,3.17,3.17,0,0,1,.07-1.17,4.3,4.3,0,0,1,.47-1.15,4.83,4.83,0,0,1,.89-1.11,3.25,3.25,0,0,1,1.22-.71Z"/><path class="cls-1" d="M34.92,30.6,36,29.08,43,34.17l-1.12,1.53Z"/><path class="cls-1" d="M41.72,25.66a1.35,1.35,0,0,0-.74.17,2.25,2.25,0,0,0-.61.46,2,2,0,0,0-.25.35A1.64,1.64,0,0,0,40,27a.9.9,0,0,0,0,.42.69.69,0,0,0,.22.37.68.68,0,0,0,.64.18,2.76,2.76,0,0,0,.75-.31l.86-.51a3.93,3.93,0,0,1,.95-.43,2.25,2.25,0,0,1,1-.06,2.18,2.18,0,0,1,1.09.59,2.77,2.77,0,0,1,.75,1,2.54,2.54,0,0,1,.17,1.13,3.06,3.06,0,0,1-.32,1.13,4.84,4.84,0,0,1-2,2,3.9,3.9,0,0,1-1.51.43l-.19-2a2,2,0,0,0,.94-.14,2.1,2.1,0,0,0,.77-.54,2.07,2.07,0,0,0,.27-.38,1.52,1.52,0,0,0,.16-.42.91.91,0,0,0,0-.41.7.7,0,0,0-.22-.35.73.73,0,0,0-.65-.19,2.75,2.75,0,0,0-.79.3l-.89.51a4.35,4.35,0,0,1-1,.43A2.34,2.34,0,0,1,40,30,2,2,0,0,1,39,29.39a2.58,2.58,0,0,1-.71-1,2.64,2.64,0,0,1-.16-1.13,3.17,3.17,0,0,1,.32-1.13,4.3,4.3,0,0,1,.69-1,4.82,4.82,0,0,1,1.1-.9,3.25,3.25,0,0,1,1.34-.44Z"/><path class="cls-1" d="M45,22l-1.89,1.56-1.07-1.29,5.25-4.32,1.07,1.29L46.48,20.8l4.4,5.34-1.46,1.2Z"/><path class="cls-1" d="M48.91,16.87l5-3,.89,1.5-3.39,2,.82,1.38,3.2-1.91.89,1.5-3.2,1.91.89,1.5,3.58-2.13.89,1.5-5.21,3.1Z"/><path class="cls-1" d="M56.59,12.5,59,11.62,64.49,16h0l-2.06-5.61,1.78-.65,3,8.07-2.33.85-5.63-4.45h0l2.11,5.74-1.78.65Z"/><path class="cls-1" d="M73.13,10.3a1.86,1.86,0,0,0-.76-.41,2.28,2.28,0,0,0-1,0,2.36,2.36,0,0,0-1.63,1.06,2.69,2.69,0,0,0-.37,1,3.35,3.35,0,0,0,.35,2.19,2.76,2.76,0,0,0,.65.78,2.33,2.33,0,0,0,.85.45,2.23,2.23,0,0,0,1,.05,2.13,2.13,0,0,0,1-.41,2.05,2.05,0,0,0,.62-.79l1.75.91a3.29,3.29,0,0,1-1.18,1.34,4.29,4.29,0,0,1-1.64.64,5.3,5.3,0,0,1-1.88,0,4.24,4.24,0,0,1-1.6-.66A4.1,4.1,0,0,1,68.1,15.1a4.85,4.85,0,0,1-.64-1.79,4.85,4.85,0,0,1,0-1.9,4.1,4.1,0,0,1,.72-1.56,4.25,4.25,0,0,1,1.31-1.13,5.29,5.29,0,0,1,1.78-.61,4.56,4.56,0,0,1,.76-.06,4.11,4.11,0,0,1,.8.09,3.48,3.48,0,0,1,.79.27,2.93,2.93,0,0,1,.72.49Z"/><path class="cls-1" d="M76,7.85l1.89-.08.35,8.59-1.89.08Z"/><path class="cls-1" d="M83.07,7.91,84.63,8l3,8.89-2.13-.19-.58-1.88-3.33-.29-.87,1.75-2.08-.18Zm.51,2.56L82.3,13l2.09.18Z"/><path class="cls-1" d="M93.09,9.44l2,.72.13,6h0l3.91-4.59,1.91.68-6.21,6.92-1.43-.51Z"/><path class="cls-1" d="M102.36,13l1.7.84-3.83,7.69-1.7-.84Z"/><path class="cls-1" d="M108.53,16.47l1.3.87-1.67,9.22-1.78-1.19.4-1.93L104,21.6l-1.61,1.12-1.74-1.16ZM107.75,19l-2.35,1.64,1.75,1.17Z"/><path class="cls-1" d="M114.35,20.76l1.39,1.29-4.67,5,2.57,2.39-1.19,1.28-4-3.68Z"/></g></g></svg>