<svg xmlns="http://www.w3.org/2000/svg" viewBox="0 0 44.04 44.03"><defs><style>.cls-1{fill:#ff6c0c;}</style></defs><title>WebIkeAsset 3</title><g id="Layer_2" data-name="Layer 2"><g id="Layer_1-2" data-name="Layer 1"><g id="_1jNnZR" data-name="1jNnZR"><path class="cls-1" d="M0,44c1-3.31,1.91-6.54,2.9-9.77a1.91,1.91,0,0,0-.17-1.64A21.53,21.53,0,0,1,.07,20.71,21.49,21.49,0,0,1,7.15,5.78,21.06,21.06,0,0,1,19.29.17,21.44,21.44,0,0,1,34.92,4.24a21.27,21.27,0,0,1,8.87,14.53,21.19,21.19,0,0,1-5.64,18.12,21.42,21.42,0,0,1-13.95,7,21.34,21.34,0,0,1-12.88-2.64,1.64,1.64,0,0,0-1.41-.16C6.79,42,3.66,42.95.54,43.87Zm3.81-3.8c2.33-.69,4.57-1.36,6.81-2a1.06,1.06,0,0,1,.76.11,19.59,19.59,0,0,0,10.07,3.07,18.71,18.71,0,0,0,14.84-6.3c5.26-5.87,6.59-12.68,3.84-20.06a19.29,19.29,0,0,0-24-11.53,18.67,18.67,0,0,0-13,14.15A19,19,0,0,0,5.69,32.59a.94.94,0,0,1,.12.86C5.14,35.68,4.49,37.9,3.81,40.22Z"/><path class="cls-1" d="M29.32,33.83A19.43,19.43,0,0,1,11.2,19.9a15.94,15.94,0,0,1-.68-6.59,6,6,0,0,1,1.76-3.8,9.47,9.47,0,0,1,1.37-1.18,2.43,2.43,0,0,1,3,.26c1.55,1.48,3.07,3,4.54,4.56a2.51,2.51,0,0,1,0,3.3c-.35.43-.77.81-1.15,1.21a1.58,1.58,0,0,0-.05,2.4q2,2.09,4,4.15a1.79,1.79,0,0,0,2.56.05c.33-.3.62-.63.93-.94a2.73,2.73,0,0,1,3.86-.11q2.15,2.05,4.21,4.2a2.81,2.81,0,0,1-.13,4A7.34,7.34,0,0,1,29.32,33.83ZM14.89,10.59a4.56,4.56,0,0,0-1.61,2.11,10.06,10.06,0,0,0,0,4.58,16.63,16.63,0,0,0,9.6,12.44,15.21,15.21,0,0,0,7.33,1.53A4.23,4.23,0,0,0,33.7,29.3s0-.07,0-.09c-1.33-1.34-2.65-2.67-4-4a.45.45,0,0,0-.43,0c-.36.31-.68.66-1,1a4.28,4.28,0,0,1-5.78,0c-1.59-1.51-3.11-3.1-4.56-4.74a4,4,0,0,1,0-5.31c.41-.48.87-.93,1.26-1.35Z"/></g></g></g></svg>