<svg xmlns="http://www.w3.org/2000/svg" viewBox="0 0 618.22 81.52"><defs><style>.cls-1{fill:#ff6c0c;}.cls-2{font-size:21.27px;fill:#111820;font-family:Avenir-Black, Avenir;letter-spacing:0.02em;}.cls-3,.cls-4{font-size:23.35px;}.cls-3{letter-spacing:0.02em;}.cls-4{fill:#fff;letter-spacing:0.02em;}.cls-5{fill:#e7e6e6;}</style></defs><title>WebIkeAsset 1</title><g id="Layer_2" data-name="Layer 2"><g id="Layer_1-2" data-name="Layer 1"><rect class="cls-1" width="618.22" height="81.52"/><text class="cls-2" transform="translate(112.61 47.11)">SOLICITAR UN SERVICIO AL<tspan class="cls-3" x="297.33" y="0"> </tspan><tspan class="cls-4" x="304.64" y="0">0800-122-1453</tspan></text><path class="cls-5" d="M64.71,71.09a13.16,13.16,0,0,1-2.19-.2c-4.13-.7-8.14-2.57-12.63-5.87A49.31,49.31,0,0,1,34.54,47.27a19.4,19.4,0,0,1-2.34-8.89,7.77,7.77,0,0,1,2.44-5.89c1.25-1.19,2.49-2.44,3.68-3.65L40,27.19l.32-.3h0L52.44,39,46.8,44.59l.07.11A44.75,44.75,0,0,0,58.49,56.35l.11.07,5.63-5.64L76.37,62.93l-.27.29-1.62,1.59c-1.15,1.12-2.34,2.29-3.44,3.5A8.12,8.12,0,0,1,64.71,71.09ZM40.26,31.68l-.95.94c-.7.7-1.43,1.42-2.18,2.08a5,5,0,0,0-1.62,4.57,19.38,19.38,0,0,0,2.83,8.19A47.77,47.77,0,0,0,54.21,64,23.64,23.64,0,0,0,63,67.63a11,11,0,0,0,1.87.19,4.41,4.41,0,0,0,3.06-1.06c.93-.82,1.8-1.7,2.64-2.56l1.08-1.08.11-.11-7.57-7.57L59,60.6A48.72,48.72,0,0,1,42.63,44.15l5.22-5.21-7.49-7.37Z"/><path class="cls-5" d="M86.81,47.53A24.56,24.56,0,0,0,74.72,15.84a23.89,23.89,0,0,0-10.4-2.34,24.43,24.43,0,0,0-20.53,11l-2.65-1.71c4.65-7.65,13.7-12.59,23.11-12.59A27.81,27.81,0,0,1,89.73,48.81Z"/><path class="cls-5" d="M75.57,42.87v-3.4h-7v-.73c0-.9,0-1.77,0-2.64a.72.72,0,0,1,.18-.3l.83-1.06q3.42-4.41,6.86-8.8a1.15,1.15,0,0,1,.73-.35c.3,0,.61,0,.92,0h1.17V36.11h2.16v3.31H79.32v3.45Zm-3.4-6.8H76v-5Z"/><path class="cls-5" d="M54.49,39.64A5.88,5.88,0,0,1,57.29,34c.69-.43,1.4-.83,2.11-1.24s1.19-.68,1.78-1a3,3,0,0,0,1-.89,1.31,1.31,0,0,0,.07-1.24,1.81,1.81,0,0,0-1.35-1,4.13,4.13,0,0,0-.69-.06,3.9,3.9,0,0,0-2.79,1.25l-.53.53-2.37-2.73a7.27,7.27,0,0,1,3.18-1.76,10.78,10.78,0,0,1,3.21-.5,10.58,10.58,0,0,1,1.78.15,4.1,4.1,0,0,1,3.66,3.12,4.25,4.25,0,0,1-2,4.59c-.67.45-1.36.87-2.06,1.29l-1.36.84a5.92,5.92,0,0,0-.6.46L60,36l.12.33.12,0h6.48v3.23Z"/><polygon class="cls-5" points="83.23 53.48 85.43 50.3 88.29 51.95 85.77 55.58 83.23 53.48"/><polygon class="cls-5" points="78.14 58.16 81.09 55.74 83.37 58.14 79.99 60.88 78.14 58.16"/></g></g></svg>