<svg xmlns="http://www.w3.org/2000/svg" viewBox="0 0 37.93 40.51"><defs><style>.cls-1{fill:#ff6c0c;}</style></defs><title>WebIkeAsset 7</title><g id="Layer_2" data-name="Layer 2"><g id="Layer_1-2" data-name="Layer 1"><g id="_6dnN6b" data-name="6dnN6b"><path class="cls-1" d="M19,40.49l-17.63,0C.24,40.46,0,40.22,0,39.14Q0,27.6,0,16.06a1.54,1.54,0,0,1,.69-1.38C2.35,13.48,4,12.25,5.58,11.05a.74.74,0,0,0,.33-.69c0-1.63,0-3.26,0-4.88,0-.78.31-1.09,1.09-1.09,1.92,0,3.84,0,5.76,0a1.46,1.46,0,0,0,.83-.29c1.55-1.22,3.07-2.47,4.61-3.7.65-.52,1-.52,1.63,0,1.53,1.24,3.05,2.49,4.6,3.72a1.46,1.46,0,0,0,.83.29c1.83,0,3.67,0,5.5,0,1,0,1.26.29,1.26,1.26,0,1.56,0,3.12,0,4.68a1,1,0,0,0,.33.67q2.46,1.9,5,3.75A1.41,1.41,0,0,1,37.93,16q0,11.72,0,23.44c0,.72-.32,1-1.09,1H28.63ZM7.76,6.22a3.16,3.16,0,0,0,0,.38q0,6.53,0,13.05a.81.81,0,0,0,.28.55c2.77,2.27,5.54,4.53,8.34,6.76a4.63,4.63,0,0,0,1.63.83,4.26,4.26,0,0,0,4-1c2.6-2.15,5.24-4.25,7.88-6.36a.89.89,0,0,0,.37-.78q0-6.4,0-12.8c0-.18,0-.36,0-.56ZM23.45,27.85c-3.06,2.6-6.05,2.55-9-.05L3.17,38.63l31.56.05Zm1.41-1.15L36,37.44l0-19.81ZM13,26.64,1.9,17.58l0,19.78ZM35.56,15.73l-3.5-2.64v5.48ZM5.86,18.47V13.09L2.41,15.68ZM21.7,4.41l0-.13L19,2.06,16.18,4.34a3,3,0,0,0,.35.06Z"/><path class="cls-1" d="M21,19.11l.27.81c-.23.1-.44.21-.66.28a5.26,5.26,0,0,1-7-5.75,5.34,5.34,0,0,1,6.34-4.6c4,.62,5.19,4.42,4.18,7.43a2.27,2.27,0,0,1-.36.62,1.74,1.74,0,0,1-3-.28,3.61,3.61,0,0,1-2.56.84,1.88,1.88,0,0,1-2-1.8,1.94,1.94,0,0,1,1.56-2.21A5.06,5.06,0,0,1,19,14.33a10.05,10.05,0,0,1,1.28.19,1.08,1.08,0,0,0-.5-1.2,2.87,2.87,0,0,0-2.89.3,9,9,0,0,1-.33-.95.42.42,0,0,1,.19-.34A4.2,4.2,0,0,1,20.29,12a2,2,0,0,1,1.36,2c0,.91,0,1.81.08,2.72a1.56,1.56,0,0,0,.12.55.61.61,0,0,0,1,.2,1.62,1.62,0,0,0,.39-.65,4.73,4.73,0,0,0-1.54-5.27,5,5,0,0,0-5.68.1,4.76,4.76,0,0,0-1,5.89,4.25,4.25,0,0,0,5.25,1.85Zm-2.38-1.65a12.14,12.14,0,0,0,1.37-.6.87.87,0,0,0,.3-1.06c-.05-.17-.41-.3-.65-.34a4.94,4.94,0,0,0-1.27-.05,1,1,0,0,0-.91,1.08C17.51,17.08,17.9,17.38,18.62,17.46Z"/></g></g></g></svg>